<svg xmlns="http://www.w3.org/2000/svg" width="15.191" height="20.711" viewBox="0 0 15.191 20.711"><path d="M7.583 0C3.396.007-.008 3.418 0 7.605c.003.868.15 1.702.419 2.479a7.635 7.635 0 0 0 2.421 3.427 5.316 5.316 0 0 1 1.887 3.333h.002a.254.254 0 0 0 .166.213l.008.001c.006.002.013.003.018.006a9.929 9.929 0 0 0 3.232.353 9.733 9.733 0 0 0 2.151-.362h.002l.002-.001c.084-.028.15-.1.17-.186l.002-.038a5.32 5.32 0 0 1 2.09-3.502 7.614 7.614 0 0 0 2.21-3.271c.27-.778.414-1.613.412-2.478C15.184 3.396 11.771-.008 7.583 0m3.192 11.854a7.602 7.602 0 0 0-2.214 3.274 7.602 7.602 0 0 1-1.702.025c-.072-.006-.146-.015-.219-.023a7.655 7.655 0 0 0-2.419-3.428V11.7a5.31 5.31 0 0 1-1.943-4.097 5.324 5.324 0 0 1 5.311-5.326 5.321 5.321 0 0 1 5.325 5.308 5.311 5.311 0 0 1-2.139 4.269"/><path d="M10.188 6.729a.911.911 0 0 0-.909.843v.02c0 .027 0 .057-.002.083-.002.002-.002.002 0 .002a1.684 1.684 0 0 1-3.364-.027v-.018a.91.91 0 0 0-1.821.021 3.508 3.508 0 0 0 3.51 3.446A3.51 3.51 0 0 0 11.1 7.692c.002-.004.002-.008.002-.014v-.056a.911.911 0 0 0-.914-.893M10.338 17.901c-.007 0-.013 0-.02.002l-.006.002a10.595 10.595 0 0 1-2.7.35c-.193 0-.387-.004-.576-.016a10.433 10.433 0 0 1-2.143-.331c-.003 0-.007-.003-.011-.003l-.019-.002a.095.095 0 0 0-.092.08c0 .011.002.021.004.03v.002a2.83 2.83 0 0 0 2.828 2.697 2.825 2.825 0 0 0 2.823-2.713l.002-.008v-.003a.09.09 0 0 0-.09-.087"/></svg>