<svg xmlns="http://www.w3.org/2000/svg" width="65" height="64" viewBox="0 0 65 64"><g><g><g><path fill="#5f5e6b" d="M2.448 22.394l30.05-21.298L62.55 22.394zm41.228 5.303v-4.308h12.858v4.308zm2.558.984h7.762v22.734h-7.762zM58.678 52.39v4.676H6.32V52.39h3.938c.077.049.163.085.26.085h8.738a.479.479 0 0 0 .26-.085h25.965c.077.049.163.085.26.085h8.738a.479.479 0 0 0 .26-.085zm2.207 5.66a2.632 2.632 0 0 1 2.626 2.632v2.343H1.476v-2.343a2.632 2.632 0 0 1 2.627-2.632zM18.763 28.681v22.734h-7.752V28.681zm24.421 0h2.065v22.724h-25.5V28.681h2.064c.272 0 .493-.22.493-.492v-4.8h20.386v4.8c0 .272.22.492.492.492zm-34.73-.984v-4.308H21.32v4.308zm55.926-5.202L32.784.09a.494.494 0 0 0-.57 0L.617 22.495a.492.492 0 0 0 .285.894H7.47v4.8c0 .272.22.492.492.492h2.065v22.724H5.827a.492.492 0 0 0-.492.492v5.169H4.103a3.616 3.616 0 0 0-3.612 3.61v2.832c0 .271.22.492.492.492h63.03c.273 0 .493-.22.493-.492v-2.831a3.616 3.616 0 0 0-3.612-3.611h-1.232v-5.169a.492.492 0 0 0-.492-.492h-4.199V28.681h2.065c.272 0 .493-.22.493-.492v-4.8h6.566a.492.492 0 0 0 .285-.894z"/></g><g><path fill="#dd353d" d="M36.602 13.417a4.108 4.108 0 0 1-4.104 4.103 4.108 4.108 0 0 1-4.103-4.103 4.108 4.108 0 0 1 4.103-4.102 4.108 4.108 0 0 1 4.104 4.102zm-9.192 0a5.094 5.094 0 0 0 5.088 5.087 5.094 5.094 0 0 0 5.089-5.087 5.094 5.094 0 0 0-5.089-5.087 5.093 5.093 0 0 0-5.088 5.087z"/></g></g></g></svg>