<svg xmlns="http://www.w3.org/2000/svg" width="64" height="64" viewBox="0 0 64 64"><g><g><g><path fill="#5f5e6b" d="M.985 18.666h62.04v42.262c0 1.11-.904 2.014-2.014 2.014H2.999a2.016 2.016 0 0 1-2.014-2.014zm0-10.165c0-1.11.903-2.013 2.014-2.013h7.597v2.55a2.875 2.875 0 0 0 2.872 2.872A2.875 2.875 0 0 0 16.34 9.04V6.488h31.33v2.55a2.875 2.875 0 0 0 2.871 2.872 2.875 2.875 0 0 0 2.873-2.871V6.488h7.597c1.11 0 2.014.903 2.014 2.013v9.18H.985zm10.594-5.545c0-1.043.846-1.892 1.887-1.892 1.04 0 1.887.849 1.887 1.892v6.099a1.891 1.891 0 0 1-1.887 1.89 1.891 1.891 0 0 1-1.887-1.89zm37.067 0c0-1.043.847-1.892 1.887-1.892 1.041 0 1.888.849 1.888 1.892v6.099a1.891 1.891 0 0 1-1.888 1.89 1.891 1.891 0 0 1-1.887-1.89zM3 63.926H61A3.002 3.002 0 0 0 64 60.929V8.503a3.002 3.002 0 0 0-2.999-2.999h-7.596V2.952A2.875 2.875 0 0 0 50.533.08a2.875 2.875 0 0 0-2.871 2.872v2.552H16.338V2.952A2.875 2.875 0 0 0 13.466.08a2.875 2.875 0 0 0-2.872 2.872v2.552H3A3.002 3.002 0 0 0 0 8.503v52.425a3.002 3.002 0 0 0 2.999 2.999z"/></g><g><path fill="#dd353d" d="M22.57 24.595h5.886c.323 0 .585.262.585.585v5.886a.585.585 0 0 1-.585.585H22.57a.585.585 0 0 1-.585-.585V25.18c0-.323.262-.585.585-.585zm0 8.04h5.886c.866 0 1.57-.703 1.57-1.569V25.18c0-.866-.704-1.57-1.57-1.57H22.57c-.866 0-1.57.704-1.57 1.57v5.886c0 .866.704 1.57 1.57 1.57z"/></g><g><path fill="#dd353d" d="M9.609 24.595h5.888c.323 0 .585.262.585.585v5.886a.585.585 0 0 1-.585.585H9.61a.585.585 0 0 1-.585-.585V25.18c0-.323.262-.585.585-.585zm0 8.04h5.887a1.57 1.57 0 0 0 1.57-1.569V25.18c0-.866-.704-1.57-1.57-1.57H9.61c-.866 0-1.57.704-1.57 1.57v5.886c0 .866.704 1.57 1.57 1.57z"/></g><g><path fill="#dd353d" d="M34.955 25.18c0-.323.262-.585.584-.585h5.887c.322 0 .585.262.585.585v5.886a.585.585 0 0 1-.585.585h-5.887a.585.585 0 0 1-.584-.585zm.584 7.455h5.887c.865 0 1.57-.703 1.57-1.569V25.18c0-.866-.705-1.57-1.57-1.57h-5.887c-.865 0-1.569.704-1.569 1.57v5.886c0 .866.704 1.57 1.57 1.57z"/></g><g><path fill="#dd353d" d="M47.915 25.18c0-.323.262-.585.584-.585h5.887c.322 0 .585.262.585.585v5.886a.585.585 0 0 1-.585.585h-5.887a.585.585 0 0 1-.584-.585zm.584 7.455h5.887c.865 0 1.57-.703 1.57-1.569V25.18c0-.866-.705-1.57-1.57-1.57h-5.887c-.865 0-1.569.704-1.569 1.57v5.886c0 .866.704 1.57 1.57 1.57z"/></g><g><path fill="#dd353d" d="M9.609 37.275h5.888c.323 0 .585.262.585.585v5.886a.585.585 0 0 1-.585.585H9.61a.586.586 0 0 1-.585-.585V37.86c0-.323.262-.585.585-.585zm0 8.041h5.887c.866 0 1.57-.704 1.57-1.57V37.86c0-.866-.704-1.57-1.57-1.57H9.61c-.866 0-1.57.704-1.57 1.57v5.886c0 .866.704 1.57 1.57 1.57z"/></g><g><path fill="#dd353d" d="M22.57 37.275h5.886c.323 0 .585.262.585.585v5.886a.586.586 0 0 1-.585.585H22.57a.586.586 0 0 1-.585-.585V37.86c0-.323.262-.585.585-.585zm0 8.041h5.886c.866 0 1.57-.704 1.57-1.57V37.86c0-.866-.704-1.57-1.57-1.57H22.57c-.866 0-1.57.704-1.57 1.57v5.886c0 .866.704 1.57 1.57 1.57z"/></g><g><path fill="#dd353d" d="M34.955 37.86c0-.323.262-.585.584-.585h5.887c.322 0 .585.262.585.585v5.886a.586.586 0 0 1-.585.585h-5.887a.585.585 0 0 1-.584-.585zm.584 7.456h5.887c.865 0 1.57-.704 1.57-1.57V37.86c0-.866-.705-1.57-1.57-1.57h-5.887c-.865 0-1.569.704-1.569 1.57v5.886c0 .866.704 1.57 1.57 1.57z"/></g><g><path fill="#dd353d" d="M47.915 37.86c0-.323.262-.585.584-.585h5.887c.322 0 .585.262.585.585v5.886a.586.586 0 0 1-.585.585h-5.887a.585.585 0 0 1-.584-.585zm.584 7.456h5.887c.865 0 1.57-.704 1.57-1.57V37.86c0-.866-.705-1.57-1.57-1.57h-5.887c-.865 0-1.569.704-1.569 1.57v5.886c0 .866.704 1.57 1.57 1.57z"/></g><g><path fill="#dd353d" d="M9.609 49.954h5.888c.323 0 .585.262.585.585v5.888a.586.586 0 0 1-.585.585H9.61a.586.586 0 0 1-.585-.585v-5.888c0-.323.262-.585.585-.585zm0 8.041h5.887c.866 0 1.57-.704 1.57-1.57V50.54c0-.866-.704-1.57-1.57-1.57H9.61c-.866 0-1.57.704-1.57 1.57v5.886c0 .865.704 1.57 1.57 1.57z"/></g><g><path fill="#dd353d" d="M22.57 49.954h5.886c.323 0 .585.262.585.585v5.888a.586.586 0 0 1-.585.585H22.57a.586.586 0 0 1-.585-.585v-5.888c0-.323.262-.585.585-.585zm0 8.041h5.886c.866 0 1.57-.704 1.57-1.57V50.54c0-.866-.704-1.57-1.57-1.57H22.57c-.866 0-1.57.704-1.57 1.57v5.886c0 .865.704 1.57 1.57 1.57z"/></g><g><path fill="#dd353d" d="M34.955 50.539c0-.323.262-.585.584-.585h5.887c.322 0 .585.262.585.585v5.888a.586.586 0 0 1-.585.585h-5.887a.585.585 0 0 1-.584-.585zm.584 7.456h5.887c.865 0 1.57-.704 1.57-1.57V50.54c0-.866-.705-1.57-1.57-1.57h-5.887c-.865 0-1.569.704-1.569 1.57v5.886c0 .865.704 1.57 1.57 1.57z"/></g></g></g></svg>