<svg xmlns="http://www.w3.org/2000/svg" width="80" height="64" viewBox="0 0 80 64"><g><g><g><path fill="#2e60b8" d="M78.77 50.598H63.587V48.25c.055-.115.108-.23.16-.344.262-.564.53-1.146.853-1.38.329-.24.973-.318 1.596-.394.944-.114 2.015-.244 2.581-1.022.56-.77.365-1.778.176-2.752-.121-.621-.246-1.263-.117-1.659.119-.365.582-.795 1.03-1.21.147-.135.297-.276.444-.42a7.268 7.268 0 0 1 3.806-1.074c.34 0 .615-.275.615-.615V14.79a.615.615 0 0 0-.615-.616c-4.021 0-7.292-3.274-7.292-7.299a.615.615 0 0 0-.616-.615H13.791a.615.615 0 0 0-.616.615c0 4.025-3.271 7.299-7.292 7.299a.615.615 0 0 0-.616.615V37.38c0 .34.276.615.616.615 4.02 0 7.292 3.272 7.292 7.293 0 .34.276.615.616.615h34.204c.424.119.88.177 1.31.23.623.075 1.267.154 1.596.393.321.233.59.816.85 1.38h.001c0 .008-.004.015-.004.023v2.67H1.23V1.57h77.538zm-32.272-5.926H14.384a8.536 8.536 0 0 0-7.886-7.885V15.383c4.211-.302 7.584-3.679 7.886-7.892h51.232c.302 4.213 3.675 7.59 7.885 7.892v21.404a8.507 8.507 0 0 0-2.133.438c.003-.043.013-.084.013-.128 0-.992-.803-1.736-1.513-2.392-.449-.415-.912-.845-1.031-1.21-.13-.397-.004-1.038.117-1.66.189-.973.384-1.98-.176-2.751-.566-.779-1.637-.909-2.582-1.023-.623-.076-1.267-.154-1.596-.393-.321-.234-.59-.817-.85-1.38-.403-.87-.859-1.857-1.787-2.158-.89-.29-1.78.203-2.64.68-.56.311-1.14.633-1.572.633-.432 0-1.012-.322-1.574-.633-.86-.477-1.75-.969-2.64-.68-.926.302-1.383 1.288-1.785 2.158-.26.563-.53 1.146-.852 1.38-.328.24-.972.318-1.595.393-.944.115-2.015.244-2.582 1.023-.56.77-.365 1.778-.176 2.751.121.622.246 1.263.118 1.66-.12.365-.583.795-1.032 1.21-.71.656-1.513 1.4-1.513 2.392s.804 1.736 1.513 2.392c.449.415.913.845 1.032 1.21.128.396.003 1.038-.118 1.659-.155.8-.307 1.62-.05 2.314zm16.134 2.718l-.028.058a.604.604 0 0 0-.247.48v.035c-.23.453-.478.834-.773.93-.384.124-1.034-.237-1.663-.586-.698-.387-1.42-.788-2.17-.788s-1.473.4-2.171.788c-.628.349-1.277.71-1.662.586-.416-.135-.738-.83-1.049-1.504-.326-.706-.663-1.436-1.244-1.858-.587-.428-1.393-.526-2.171-.62-.73-.088-1.484-.18-1.735-.525-.246-.338-.102-1.078.037-1.793.15-.774.306-1.575.08-2.274-.219-.67-.802-1.211-1.367-1.733-.55-.509-1.118-1.035-1.118-1.49 0-.453.568-.98 1.118-1.488.565-.522 1.148-1.062 1.366-1.733.227-.7.071-1.5-.079-2.274-.14-.716-.283-1.455-.038-1.793.251-.345 1.006-.436 1.735-.525.779-.094 1.584-.192 2.171-.62.58-.422.919-1.152 1.246-1.859.31-.672.632-1.368 1.048-1.503.383-.123 1.034.236 1.663.585.697.388 1.42.788 2.17.788s1.472-.4 2.17-.788c.628-.348 1.279-.71 1.663-.585.415.135.737.83 1.048 1.503.327.706.664 1.437 1.244 1.859.587.428 1.393.525 2.172.62.729.088 1.483.18 1.734.525.246.337.103 1.077-.037 1.793-.15.774-.306 1.575-.08 2.274.219.67.803 1.21 1.367 1.733.55.509 1.118 1.035 1.118 1.489 0 .454-.568.98-1.118 1.489-.564.522-1.148 1.062-1.366 1.733-.227.699-.071 1.5.08 2.274.139.715.283 1.455.037 1.792-.251.346-1.005.437-1.735.526-.779.094-1.584.192-2.171.62-.58.422-.918 1.152-1.245 1.859zm-.275 14.474l-4.338-3.019a.615.615 0 0 0-.703 0l-4.338 3.02V49.758c.167.13.35.236.56.304.892.29 1.78-.203 2.64-.68.56-.31 1.141-.633 1.573-.633.431 0 1.012.322 1.573.634.681.378 1.38.766 2.086.765.184 0 .369-.026.553-.086.143-.046.272-.113.394-.19zM79.385.34H.615A.615.615 0 0 0 0 .955v50.259c0 .34.275.615.615.615h51.133v11.214a.615.615 0 0 0 .967.505l4.953-3.448 4.953 3.448a.617.617 0 0 0 .967-.505V51.829h15.797c.34 0 .615-.275.615-.615V.955a.615.615 0 0 0-.615-.615z"/></g><g><path fill="#dd353d" d="M17.745 17.62H61.9a.615.615 0 1 0 0-1.23H17.745a.615.615 0 1 0 0 1.23z"/></g><g><path fill="#dd353d" d="M17.745 24.75h27.898a.615.615 0 1 0 0-1.23H17.745a.615.615 0 1 0 0 1.23z"/></g><g><path fill="#dd353d" d="M35.95 30.65H17.745a.615.615 0 1 0 0 1.23H35.95a.615.615 0 1 0 0-1.23z"/></g><g><path fill="#dd353d" d="M57.752 43.854a6.76 6.76 0 0 1-6.751-6.752 6.759 6.759 0 0 1 6.751-6.751 6.76 6.76 0 0 1 6.752 6.751 6.76 6.76 0 0 1-6.752 6.752zm0-14.734c-4.401 0-7.982 3.58-7.982 7.982s3.58 7.983 7.982 7.983c4.401 0 7.983-3.581 7.983-7.983 0-4.401-3.582-7.982-7.983-7.982z"/></g></g></g></svg>