<svg xmlns="http://www.w3.org/2000/svg" xmlns:xlink="http://www.w3.org/1999/xlink" width="24" height="24" viewBox="0 0 24 24"><defs><path id="t9sia" d="M1297.961 4390.592a1.437 1.437 0 1 1 2.875 0 1.437 1.437 0 0 1-2.875 0zm1.197 6.408a6.17 6.17 0 0 1-6.167 6.167 6.17 6.17 0 0 1-6.167-6.167 6.17 6.17 0 0 1 6.167-6.167 6.17 6.17 0 0 1 6.167 6.167zm-2.161 0a4.007 4.007 0 1 0-4.006 4.006c2.207 0 4.006-1.799 4.006-4.006zm7.929-4.952c.065 1.28.074 1.688.074 4.952 0 3.264-.019 3.672-.074 4.952-.056 1.27-.26 2.152-.557 2.912a5.865 5.865 0 0 1-1.381 2.124 5.865 5.865 0 0 1-2.124 1.381c-.76.297-1.632.501-2.912.557-1.28.065-1.688.074-4.952.074-3.264 0-3.672-.019-4.952-.074-1.27-.056-2.152-.26-2.912-.557a5.865 5.865 0 0 1-2.124-1.381 5.865 5.865 0 0 1-1.381-2.124c-.297-.76-.501-1.632-.557-2.912-.065-1.28-.074-1.688-.074-4.952 0-3.264.019-3.672.074-4.952.056-1.27.26-2.152.557-2.912a5.865 5.865 0 0 1 1.381-2.124 5.865 5.865 0 0 1 2.124-1.381c.76-.297 1.632-.501 2.912-.557 1.28-.065 1.688-.074 4.952-.074 3.264 0 3.672.019 4.952.074 1.27.056 2.152.26 2.912.557a5.865 5.865 0 0 1 2.124 1.381 5.865 5.865 0 0 1 1.381 2.124c.297.76.501 1.632.557 2.912zm-2.087 4.952c0-3.2-.018-3.58-.074-4.85-.056-1.169-.25-1.8-.417-2.226a3.757 3.757 0 0 0-.9-1.381 3.717 3.717 0 0 0-1.382-.9c-.417-.167-1.057-.362-2.225-.417-1.261-.065-1.65-.075-4.85-.075-3.2 0-3.58.019-4.85.075-1.169.055-1.8.25-2.226.417a3.757 3.757 0 0 0-1.382.9 3.717 3.717 0 0 0-.9 1.381c-.166.418-.361 1.057-.417 2.226-.065 1.261-.074 1.65-.074 4.85 0 3.2.019 3.58.074 4.85.056 1.169.25 1.8.418 2.226.222.565.482.964.9 1.382.417.417.825.686 1.381.899.417.167 1.057.362 2.226.417 1.26.065 1.641.075 4.85.075 3.208 0 3.58-.019 4.85-.075 1.168-.055 1.799-.25 2.225-.417a3.757 3.757 0 0 0 1.382-.9c.418-.417.686-.825.9-1.381.167-.418.361-1.057.417-2.226.056-1.261.074-1.65.074-4.85z"/><radialGradient id="t9sib" cx="1287.96" cy="4408.95" r="24.21" gradientUnits="userSpaceOnUse"><stop offset="0" stop-color="#ffd776"/><stop offset=".25" stop-color="#f3a554"/><stop offset=".38" stop-color="#f15c3c"/><stop offset=".54" stop-color="#d94867"/><stop offset=".7" stop-color="#c32f87"/><stop offset=".91" stop-color="#7d63a7"/><stop offset=".99" stop-color="#5c6cb3"/></radialGradient></defs><g><g transform="translate(-1281 -4385)"><use fill="url(#t9sib)" xlink:href="#t9sia"/></g></g></svg>