<svg xmlns="http://www.w3.org/2000/svg" xmlns:xlink="http://www.w3.org/1999/xlink" width="8" height="10" viewBox="0 0 8 10"><defs><path id="o741a" d="M1064.66 60.014c.28 0 .82-.56 1.1-.59a1.07 1.07 0 0 1 .77.24l.74.6.45.37a.77.77 0 0 1 .12 1.07l-.84 1.18a.3.3 0 0 1-.27.13 7.54 7.54 0 0 1-6.73-7.56 7.79 7.79 0 0 1 .27-2.05.19.19 0 0 1 .14-.13l1.59-.26a.73.73 0 0 1 .86.59l.14.6.18 1c.054.282 0 .574-.15.82-.15.25-.86.5-1 .74a5.64 5.64 0 0 0 2.61 3.35v-.1z"/></defs><g><g transform="translate(-1060 -53)"><use fill="#2e60b8" xlink:href="#o741a"/></g></g></svg>