<svg xmlns="http://www.w3.org/2000/svg" width="64" height="72" viewBox="0 0 64 72"><g><g><g><path fill="#dd353d" d="M20.103 21.793c0-6.562 5.338-11.9 11.9-11.9 6.56 0 11.9 5.338 11.9 11.9 0 6.561-5.34 11.9-11.9 11.9-6.562 0-11.9-5.339-11.9-11.9zm24.902 0c0-7.17-5.833-13.003-13.003-13.003C24.833 8.79 19 14.623 19 21.793s5.833 13.002 13.002 13.002c7.17 0 13.003-5.833 13.003-13.002z"/></g><g><path fill="#5f5e6b" d="M31.557 62.642a.551.551 0 0 0 .88 0c.44-.582 5.91-7.866 11.176-16.473h7.29L62.345 70.62H1.65l11.443-24.452h7.29c5.265 8.607 10.736 15.89 11.175 16.473zM11.524 22.395c0-11.74 9.184-21.292 20.473-21.292 11.29 0 20.473 9.552 20.473 21.292 0 10.78-17.455 34.902-20.473 38.99-3.017-4.088-20.473-28.208-20.473-38.99zm.717 22.988L.282 70.94a.551.551 0 0 0 .5.785h62.431a.552.552 0 0 0 .5-.785l-11.96-25.556a.552.552 0 0 0-.5-.318h-6.97c4.828-8.028 9.293-16.988 9.293-22.67C53.576 10.046 43.896 0 31.997 0 20.1 0 10.42 10.046 10.42 22.395c0 5.682 4.465 14.642 9.293 22.67h-6.97a.552.552 0 0 0-.5.318z"/></g></g></g></svg>