<svg xmlns="http://www.w3.org/2000/svg" xmlns:xlink="http://www.w3.org/1999/xlink" width="18" height="18" viewBox="0 0 18 18"><defs><path id="r5k2a" d="M1349.53 127.939a5.374 5.374 0 0 1-3.826-1.585 5.375 5.375 0 0 1-1.584-3.825c0-1.445.563-2.803 1.584-3.825a5.374 5.374 0 0 1 3.825-1.584c1.445 0 2.804.563 3.825 1.584a5.416 5.416 0 0 1 0 7.65 5.374 5.374 0 0 1-3.825 1.585zM1360 131.5l-4.451-4.451c2.216-2.948 1.985-7.164-.696-9.845a7.482 7.482 0 0 0-5.324-2.205 7.481 7.481 0 0 0-5.324 2.205 7.48 7.48 0 0 0-2.205 5.324 7.48 7.48 0 0 0 2.205 5.324 7.48 7.48 0 0 0 5.324 2.206c1.653 0 3.224-.53 4.522-1.51l4.45 4.451z"/></defs><g><g transform="translate(-1342 -115)"><use fill="#768b9c" xlink:href="#r5k2a"/></g></g></svg>