<svg xmlns="http://www.w3.org/2000/svg" xmlns:xlink="http://www.w3.org/1999/xlink" width="15" height="19" viewBox="0 0 15 19"><defs><path id="jejpa" d="M1292.01 57.81h.607v1.569h2.875V57.81h7.551v1.569h2.876V57.81h.627v-1.66h-14.536z"/><path id="jejpb" d="M1292.01 41.17v14.698h1.342V44.673h11.852v11.195h1.342V41.17z"/><path id="jejpc" d="M1294.297 45.543h9.959v4.303h-9.96zm8.485 9.312c-.557 0-1.008-.38-1.008-.849 0-.47.45-.85 1.008-.85.556 0 1.008.38 1.008.85 0 .469-.452.85-1.008.85zm-7.133 0c-.557 0-1.008-.379-1.008-.849s.45-.85 1.008-.85c.557 0 1.008.38 1.008.85s-.451.85-1.008.85zm-1.799-9.675v10.694h10.852V45.18z"/></defs><g><g transform="translate(-1292 -41)"><g><use fill="#dd353d" xlink:href="#jejpa"/></g><g><use fill="#dd353d" xlink:href="#jejpb"/></g><g><use fill="#dd353d" xlink:href="#jejpc"/></g></g></g></svg>