<?xml version='1.0' encoding='iso-8859-1'?>
<svg version="1.1" xmlns="http://www.w3.org/2000/svg" viewBox="0 0 470 470" xmlns:xlink="http://www.w3.org/1999/xlink" enable-background="new 0 0 470 470">
  <g>
    <path fill="#dd353d" d="m78.628,91.881c4.142,0 7.5-3.358 7.5-7.5v-69.381h297.743v69.381c0,4.142 3.358,7.5 7.5,7.5s7.5-3.358 7.5-7.5v-76.881c0-4.142-3.358-7.5-7.5-7.5h-312.743c-4.142,0-7.5,3.358-7.5,7.5v76.881c0,4.142 3.358,7.5 7.5,7.5z"/>
    <path fill="#dd353d" d="m398.872,290.218v-95.837c0-4.142-3.358-7.5-7.5-7.5s-7.5,3.358-7.5,7.5v95.161h-24.186v-117.661h61.686c4.142,0 7.5-3.358 7.5-7.5v-50c0-4.142-3.358-7.5-7.5-7.5h-61.686v-22.5c0-4.142-3.358-7.5-7.5-7.5h-234.372c-4.142,0-7.5,3.358-7.5,7.5v22.5h-61.686c-4.142,0-7.5,3.358-7.5,7.5v50c0,4.142 3.358,7.5 7.5,7.5h61.686v117.661h-24.186v-95.161c0-4.142-3.358-7.5-7.5-7.5s-7.5,3.358-7.5,7.5v95.837c-19.868,3.554-35,20.949-35,41.824v79.491c0,4.142 3.358,7.5 7.5,7.5h2.5v43.467c0,4.142 3.358,7.5 7.5,7.5h64.186c4.142,0 7.5-3.358 7.5-7.5v-20.967c0-4.142-3.358-7.5-7.5-7.5s-7.5,3.358-7.5,7.5v13.467h-49.186v-35.967h347.743v35.967h-49.186v-13.467c0-4.142-3.358-7.5-7.5-7.5s-7.5,3.358-7.5,7.5v20.967c0,4.142 3.358,7.5 7.5,7.5h64.186c4.142,0 7.5-3.358 7.5-7.5v-43.467h2.5c4.142,0 7.5-3.358 7.5-7.5v-79.491c0.001-20.875-15.131-38.27-34.999-41.824zm-7.5,14.324c15.164,0 27.5,12.336 27.5,27.5v31.991h-59.186v-59.491h31.686zm27.5,99.491h-367.744v-25h367.743v25zm-293.557-232.152h219.371v192.151h-219.371v-192.151zm288.558-15h-15v-35h15v35zm-30-35v35h-24.186v-35h24.186zm-39.186,35h-102.186v-65h102.186v65zm-219.372-65h102.186v65h-102.186v-65zm-15,65h-24.186v-35h24.186v35zm-54.186-35h15v35h-15v-35zm22.5,182.661h31.686v59.491h-59.186v-31.991c0-15.164 12.337-27.5 27.5-27.5z"/>
    <path fill="#dd353d" d="m147.814,259.033h174.371c4.142,0 7.5-3.358 7.5-7.5 0-23.435-19.065-42.5-42.5-42.5h-104.371c-23.435,0-42.5,19.065-42.5,42.5 0,4.142 3.358,7.5 7.5,7.5zm35-35h104.371c12.565,0 23.188,8.47 26.46,20h-157.291c3.272-11.531 13.896-20 26.46-20z"/>
    <path fill="#dd353d" d="m322.186,274.033h-174.372c-4.142,0-7.5,3.358-7.5,7.5s3.358,7.5 7.5,7.5h174.371c4.142,0 7.5-3.358 7.5-7.5s-3.357-7.5-7.499-7.5z"/>
    <path fill="#dd353d" d="m322.186,304.033h-174.372c-4.142,0-7.5,3.358-7.5,7.5s3.358,7.5 7.5,7.5h174.371c4.142,0 7.5-3.358 7.5-7.5s-3.357-7.5-7.499-7.5z"/>
    <path fill="#dd353d" d="m322.186,334.033h-174.372c-4.142,0-7.5,3.358-7.5,7.5s3.358,7.5 7.5,7.5h174.371c4.142,0 7.5-3.358 7.5-7.5s-3.357-7.5-7.499-7.5z"/>
  </g>
</svg>
