<svg viewBox="0 0 180 72" fill="none" xmlns="http://www.w3.org/2000/svg">
<path fill-rule="evenodd" clip-rule="evenodd" d="M58.6 67.309L66.855 71.047L75.111 67.309L76.065 71.047H133.704L129.847 62.382L123.821 59.784L127.533 57.184L123.675 48.52H94.172L90.314 57.184H111.039L102.819 59.783L108.559 62.382H82.794L66.87 0L50.917 62.382H45.734L39.562 48.52H30.077L24.817 60.435L19.489 48.52H10.03L0 71.047H9.485L14.772 59.174L20.035 71.047H29.577L34.842 59.22L40.107 71.047H57.646L58.6 67.309ZM60.776 58.785L66.855 61.537L72.949 58.84L66.856 34.97L60.776 58.785Z" fill="#D8232A"/>
<path d="M119.06 71.047H179.732V48.52H119.06V71.047Z" fill="#D8232A"/>
<path d="M171.063 49.42H177.787V70.02H173.009L173.18 54.341L168.717 70.019H165.227L160.792 54.169L160.935 70.019H156.1V49.42H162.88L167 63.067L171.063 49.42" fill="#FFFFFE"/>
<path d="M143.084 55.39C143.656 55.3901 144.222 55.5029 144.75 55.7218C145.279 55.9408 145.759 56.2617 146.163 56.6661C146.567 57.0706 146.888 57.5507 147.106 58.079C147.325 58.6074 147.438 59.1737 147.438 59.7455C147.437 60.3173 147.325 60.8836 147.106 61.4118C146.887 61.9401 146.566 62.42 146.161 62.8243C145.757 63.2286 145.277 63.5492 144.748 63.7679C144.22 63.9866 143.654 64.0991 143.082 64.099C141.927 64.0987 140.82 63.6397 140.003 62.8229C139.187 62.0061 138.728 60.8984 138.729 59.7435C138.729 58.5886 139.188 57.4811 140.005 56.6647C140.821 55.8483 141.929 55.3897 143.084 55.39" fill="#323937"/>
<path d="M143.075 49.21C148.892 49.21 153.61 53.928 153.61 59.745C153.61 65.562 148.892 70.28 143.075 70.28C137.258 70.28 132.54 65.562 132.54 59.745C132.54 53.928 137.258 49.21 143.075 49.21" fill="#FFFFFE"/>
<path d="M143.076 53.47C144.741 53.4703 146.337 54.1318 147.514 55.3092C148.691 56.4865 149.352 58.0832 149.352 59.748C149.352 61.4128 148.69 63.0092 147.513 64.1862C146.335 65.3632 144.739 66.0243 143.074 66.024C141.409 66.0237 139.813 65.3622 138.636 64.1848C137.459 63.0074 136.798 61.4108 136.798 59.746C136.798 58.0812 137.46 56.4848 138.637 55.3078C139.815 54.1308 141.411 53.4697 143.076 53.47" fill="#D8232A"/>
<path d="M143.076 53.8C143.857 53.8001 144.63 53.9541 145.352 54.2531C146.073 54.5521 146.729 54.9902 147.281 55.5425C147.833 56.0949 148.271 56.7505 148.57 57.4721C148.868 58.1937 149.022 58.967 149.022 59.748C149.022 60.529 148.868 61.3023 148.569 62.0237C148.27 62.7452 147.832 63.4007 147.279 63.9529C146.727 64.505 146.072 64.943 145.35 65.2417C144.628 65.5404 143.855 65.6941 143.074 65.694C141.497 65.6937 139.984 65.0669 138.869 63.9515C137.754 62.836 137.128 61.3232 137.128 59.746C137.128 58.1688 137.755 56.6562 138.871 55.5411C139.986 54.426 141.499 53.7997 143.076 53.8V53.8Z" fill="#FFFFFE"/>
<path fill-rule="evenodd" clip-rule="evenodd" d="M143.076 53.94C141.536 53.9397 140.059 54.5513 138.97 55.6401C137.88 56.729 137.268 58.2059 137.268 59.746C137.268 61.2861 137.879 62.7633 138.968 63.8525C140.057 64.9417 141.534 65.5537 143.074 65.554C143.837 65.5541 144.592 65.4041 145.296 65.1123C146.001 64.8206 146.641 64.393 147.181 63.8539C147.72 63.3147 148.148 62.6746 148.44 61.9701C148.732 61.2657 148.882 60.5106 148.882 59.748C148.882 58.9854 148.732 58.2303 148.44 57.5257C148.149 56.8211 147.721 56.1808 147.182 55.6415C146.643 55.1022 146.003 54.6744 145.298 54.3824C144.594 54.0905 143.839 53.9401 143.076 53.94ZM138.772 55.4421C139.913 54.3008 141.462 53.6597 143.076 53.66C143.875 53.6601 144.667 53.8177 145.405 54.1237C146.144 54.4298 146.815 54.8782 147.38 55.4436C147.945 56.0089 148.393 56.68 148.699 57.4186C149.005 58.1571 149.162 58.9487 149.162 59.748C149.162 60.5474 149.004 61.3389 148.698 62.0773C148.392 62.8158 147.944 63.4868 147.378 64.0519C146.813 64.617 146.142 65.0653 145.403 65.371C144.665 65.6768 143.873 65.8341 143.074 65.834C141.46 65.8337 139.911 65.1922 138.77 64.0504C137.629 62.9087 136.988 61.3604 136.988 59.746C136.988 58.1316 137.63 56.5835 138.772 55.4421Z" fill="#FFFFFE"/>
<path d="M139.944 59.06H146.216C146.532 59.06 146.79 59.37 146.79 59.748C146.79 60.126 146.532 60.436 146.216 60.436H139.944C139.628 60.436 139.37 60.126 139.37 59.748C139.37 59.369 139.628 59.06 139.944 59.06Z" fill="#D8232A"/>
<path fill-rule="evenodd" clip-rule="evenodd" d="M139.944 59.19C139.721 59.19 139.5 59.4178 139.5 59.748C139.5 60.0773 139.721 60.306 139.944 60.306H146.216C146.439 60.306 146.66 60.0773 146.66 59.748C146.66 59.4186 146.439 59.19 146.216 59.19H139.944ZM139.24 59.748C139.24 59.3202 139.535 58.93 139.944 58.93H146.216C146.625 58.93 146.92 59.3214 146.92 59.748C146.92 60.1746 146.625 60.566 146.216 60.566H139.944C139.535 60.566 139.24 60.1746 139.24 59.748Z" fill="#FFFFFE"/>
<path d="M140.376 61.481L144.811 57.047C145.034 56.823 145.436 56.859 145.703 57.127C145.971 57.394 146.007 57.796 145.783 58.019L141.349 62.454C141.126 62.677 140.724 62.641 140.457 62.374C140.189 62.106 140.153 61.704 140.377 61.481H140.376Z" fill="#D8232A"/>
<path fill-rule="evenodd" clip-rule="evenodd" d="M145.611 57.2188C145.379 56.9855 145.061 56.9806 144.903 57.1387L140.69 61.351H140.692L140.469 61.5731C140.311 61.7305 140.315 62.0485 140.549 62.2821C140.781 62.5145 141.1 62.5195 141.257 62.3621C141.257 62.3621 141.257 62.3621 141.257 62.3621L145.691 57.9271C145.849 57.7697 145.844 57.4511 145.611 57.2188ZM140.142 61.611H140.062L144.719 56.9553C144.719 56.9552 144.719 56.9553 144.719 56.9553C145.007 56.6656 145.493 56.7325 145.795 57.0351C146.098 57.3367 146.165 57.8225 145.875 58.1111C145.875 58.1111 145.875 58.1111 145.875 58.1111L141.441 62.5459C141.152 62.8345 140.667 62.7675 140.365 62.4659C140.131 62.232 140.038 61.8883 140.142 61.611Z" fill="#FFFFFE"/>
<path d="M142.39 62.886V56.614C142.39 56.298 142.7 56.04 143.078 56.04C143.456 56.04 143.766 56.298 143.766 56.614V62.886C143.766 63.202 143.456 63.46 143.078 63.46C142.699 63.46 142.39 63.202 142.39 62.886Z" fill="#D8232A"/>
<path fill-rule="evenodd" clip-rule="evenodd" d="M143.078 56.17C142.749 56.17 142.52 56.3909 142.52 56.614V62.886C142.52 63.1092 142.748 63.33 143.078 63.33C143.407 63.33 143.636 63.1091 143.636 62.886V56.614C143.636 56.3909 143.407 56.17 143.078 56.17ZM142.26 56.614C142.26 56.2051 142.651 55.91 143.078 55.91C143.505 55.91 143.896 56.2051 143.896 56.614V62.886C143.896 63.2949 143.505 63.59 143.078 63.59C142.65 63.59 142.26 63.2948 142.26 62.886V56.614Z" fill="#FFFFFE"/>
<path d="M144.81 62.444L140.376 58.009C140.153 57.786 140.189 57.385 140.457 57.117C140.725 56.849 141.126 56.813 141.349 57.037L145.784 61.471C146.007 61.694 145.971 62.096 145.704 62.363C145.436 62.631 145.034 62.667 144.811 62.443L144.81 62.444Z" fill="#D8232A"/>
<path fill-rule="evenodd" clip-rule="evenodd" d="M141.257 57.1287C141.1 56.9707 140.783 56.9754 140.549 57.2089C140.315 57.4425 140.311 57.7598 140.468 57.9171L144.81 62.2605L144.812 62.2593L144.903 62.3513C145.06 62.5093 145.379 62.5046 145.612 62.2711C145.844 62.0387 145.85 61.7204 145.692 61.5629C145.692 61.5629 145.692 61.5629 145.692 61.5629L141.257 57.1287ZM144.82 62.6171L144.81 62.6275L140.284 58.1009C140.284 58.1009 140.284 58.1009 140.284 58.1009C139.995 57.8122 140.063 57.3275 140.365 57.0251C140.668 56.7227 141.152 56.6553 141.441 56.9452C141.441 56.9452 141.441 56.9451 141.441 56.9452L145.876 61.3791C146.164 61.6676 146.098 62.1533 145.796 62.4549C145.527 62.7243 145.112 62.8072 144.82 62.6171Z" fill="#FFFFFE"/>
<path d="M143.08 57.94C143.56 57.94 144.021 58.1308 144.361 58.4704C144.7 58.8101 144.891 59.2707 144.891 59.751C144.891 60.2313 144.7 60.6919 144.361 61.0316C144.021 61.3712 143.56 61.562 143.08 61.562C142.6 61.562 142.139 61.3712 141.799 61.0316C141.46 60.6919 141.269 60.2313 141.269 59.751C141.269 59.2707 141.46 58.8101 141.799 58.4704C142.139 58.1308 142.6 57.94 143.08 57.94Z" fill="#FFFFFE"/>
<path fill-rule="evenodd" clip-rule="evenodd" d="M143.08 58.07C142.634 58.07 142.207 58.2471 141.891 58.5623C141.576 58.8776 141.399 59.3052 141.399 59.751C141.399 60.1968 141.576 60.6244 141.891 60.9396C142.207 61.2549 142.634 61.432 143.08 61.432C143.526 61.432 143.953 61.2549 144.269 60.9396C144.584 60.6244 144.761 60.1968 144.761 59.751C144.761 59.3052 144.584 58.8776 144.269 58.5623C143.953 58.2471 143.526 58.07 143.08 58.07ZM141.708 58.3785C142.072 58.0145 142.565 57.81 143.08 57.81C143.595 57.81 144.089 58.0145 144.453 58.3785C144.817 58.7425 145.021 59.2362 145.021 59.751C145.021 60.2658 144.817 60.7595 144.453 61.1235C144.089 61.4875 143.595 61.692 143.08 61.692C142.565 61.692 142.072 61.4875 141.708 61.1235C141.344 60.7595 141.139 60.2658 141.139 59.751C141.139 59.2362 141.344 58.7425 141.708 58.3785Z" fill="#FFFFFE"/>
<path d="M143.074 56.81C143.165 56.81 143.253 56.8463 143.318 56.9109C143.382 56.9755 143.418 57.0631 143.418 57.1545C143.418 57.2459 143.382 57.3335 143.318 57.3981C143.253 57.4627 143.165 57.499 143.074 57.499C142.983 57.499 142.895 57.4627 142.83 57.3981C142.766 57.3335 142.729 57.2459 142.729 57.1545C142.729 57.0631 142.766 56.9755 142.83 56.9109C142.895 56.8463 142.983 56.81 143.074 56.81Z" fill="#FFFFFE"/>
<path fill-rule="evenodd" clip-rule="evenodd" d="M143.074 56.94C143.017 56.94 142.963 56.9626 142.922 57.0028C142.882 57.043 142.859 57.0976 142.859 57.1545C142.859 57.2114 142.882 57.266 142.922 57.3062C142.963 57.3464 143.017 57.369 143.074 57.369C143.131 57.369 143.185 57.3464 143.226 57.3062C143.266 57.2659 143.288 57.2114 143.288 57.1545C143.288 57.0976 143.266 57.0431 143.226 57.0028C143.185 56.9626 143.131 56.94 143.074 56.94ZM142.738 56.819C142.827 56.73 142.948 56.68 143.074 56.68C143.2 56.68 143.321 56.73 143.41 56.819C143.498 56.908 143.548 57.0287 143.548 57.1545C143.548 57.2804 143.498 57.401 143.41 57.49C143.321 57.579 143.2 57.629 143.074 57.629C142.948 57.629 142.827 57.579 142.738 57.49C142.649 57.401 142.599 57.2803 142.599 57.1545C142.599 57.0287 142.649 56.908 142.738 56.819Z" fill="#FFFFFE"/>
<path d="M143.074 61.99C143.166 61.99 143.253 62.0263 143.318 62.091C143.383 62.1557 143.419 62.2435 143.419 62.335C143.419 62.4265 143.383 62.5142 143.318 62.5789C143.253 62.6436 143.166 62.68 143.074 62.68C142.983 62.68 142.895 62.6436 142.83 62.5789C142.765 62.5142 142.729 62.4265 142.729 62.335C142.729 62.2435 142.765 62.1557 142.83 62.091C142.895 62.0263 142.983 61.99 143.074 61.99V61.99Z" fill="#FFFFFE"/>
<path fill-rule="evenodd" clip-rule="evenodd" d="M143.074 62.12C143.017 62.12 142.962 62.1427 142.922 62.183C142.882 62.2233 142.859 62.278 142.859 62.335C142.859 62.392 142.882 62.4467 142.922 62.487C142.962 62.5273 143.017 62.55 143.074 62.55C143.131 62.55 143.186 62.5274 143.226 62.487C143.266 62.4467 143.289 62.392 143.289 62.335C143.289 62.278 143.266 62.2233 143.226 62.183C143.186 62.1427 143.131 62.12 143.074 62.12ZM142.738 61.9991C142.827 61.91 142.948 61.86 143.074 61.86C143.2 61.86 143.321 61.9101 143.41 61.9991C143.499 62.0882 143.549 62.209 143.549 62.335C143.549 62.461 143.499 62.5818 143.41 62.6709C143.321 62.76 143.2 62.81 143.074 62.81C142.948 62.81 142.827 62.76 142.738 62.6709C142.649 62.5818 142.599 62.461 142.599 62.335C142.599 62.209 142.649 62.0882 142.738 61.9991Z" fill="#FFFFFE"/>
<path d="M141.001 57.671C141.033 57.639 141.071 57.6136 141.113 57.5963C141.154 57.579 141.199 57.57 141.244 57.57C141.289 57.5699 141.334 57.5788 141.376 57.596C141.418 57.6133 141.456 57.6386 141.488 57.6705C141.519 57.7024 141.545 57.7403 141.562 57.782C141.58 57.8237 141.588 57.8685 141.589 57.9136C141.589 57.9588 141.58 58.0036 141.562 58.0453C141.545 58.0871 141.52 58.125 141.488 58.157C141.424 58.2216 141.336 58.2579 141.245 58.258C141.154 58.2581 141.066 58.2219 141.002 58.1575C140.937 58.0931 140.901 58.0056 140.901 57.9144C140.9 57.8231 140.937 57.7356 141.001 57.671Z" fill="#FFFFFE"/>
<path fill-rule="evenodd" clip-rule="evenodd" d="M141.326 57.7162C141.3 57.7055 141.272 57.7 141.244 57.7C141.216 57.7 141.188 57.7056 141.162 57.7164C141.136 57.7271 141.113 57.7429 141.093 57.7628C141.053 57.803 141.03 57.8575 141.031 57.9142C141.031 57.971 141.053 58.0254 141.093 58.0655C141.134 58.1056 141.188 58.1281 141.245 58.128C141.301 58.1279 141.356 58.1053 141.396 58.0652C141.416 58.0453 141.432 58.0217 141.442 57.9957C141.453 57.9697 141.459 57.9419 141.459 57.9138C141.458 57.8857 141.453 57.8579 141.442 57.8319C141.431 57.8059 141.416 57.7824 141.396 57.7625C141.376 57.7427 141.352 57.7269 141.326 57.7162ZM141.244 57.44C141.306 57.4399 141.368 57.4521 141.425 57.4759C141.483 57.4996 141.535 57.5345 141.579 57.5785C141.623 57.6225 141.658 57.6747 141.682 57.7322C141.706 57.7896 141.718 57.8513 141.719 57.9135C141.719 57.9757 141.706 58.0374 141.683 58.0949C141.659 58.1525 141.624 58.2048 141.58 58.2488C141.491 58.3378 141.371 58.3879 141.245 58.388C141.119 58.3881 140.999 58.3383 140.91 58.2495C140.821 58.1607 140.771 58.0402 140.771 57.9145C140.77 57.7888 140.82 57.6681 140.909 57.5792C140.953 57.5351 141.005 57.5001 141.063 57.4763C141.12 57.4524 141.182 57.4401 141.244 57.44Z" fill="#FFFFFE"/>
<path d="M144.67 61.33C144.702 61.298 144.74 61.2726 144.782 61.2552C144.824 61.2379 144.869 61.229 144.914 61.2291C144.96 61.2291 145.005 61.2381 145.047 61.2555C145.088 61.2729 145.126 61.2984 145.159 61.3305C145.191 61.3626 145.216 61.4007 145.233 61.4426C145.251 61.4846 145.259 61.5295 145.259 61.5749C145.259 61.6202 145.25 61.6651 145.233 61.707C145.216 61.7489 145.19 61.787 145.158 61.819C145.092 61.8793 145.006 61.9119 144.917 61.91C144.828 61.9081 144.743 61.8718 144.68 61.8088C144.617 61.7457 144.581 61.6608 144.58 61.5718C144.578 61.4827 144.611 61.3964 144.671 61.331L144.67 61.33Z" fill="#FFFFFE"/>
<path fill-rule="evenodd" clip-rule="evenodd" d="M144.914 61.3591C144.886 61.359 144.858 61.3646 144.832 61.3754C144.811 61.3838 144.792 61.3954 144.775 61.4096L144.767 61.4192C144.729 61.46 144.708 61.5137 144.71 61.5692C144.711 61.6247 144.733 61.6777 144.772 61.717C144.811 61.7562 144.864 61.7789 144.92 61.78C144.974 61.7812 145.027 61.7615 145.068 61.7251C145.087 61.7055 145.102 61.6825 145.113 61.6571C145.124 61.631 145.129 61.603 145.129 61.5747C145.129 61.5464 145.124 61.5184 145.113 61.4923C145.102 61.4661 145.086 61.4423 145.067 61.4223C145.047 61.4023 145.023 61.3864 144.997 61.3756C144.971 61.3647 144.943 61.3591 144.914 61.3591ZM144.503 61.3469L144.486 61.3303L144.578 61.238C144.622 61.1939 144.675 61.1589 144.733 61.1351C144.79 61.1112 144.852 61.099 144.915 61.0991C144.977 61.0991 145.039 61.1115 145.096 61.1355C145.154 61.1594 145.206 61.1945 145.251 61.2387C145.295 61.2829 145.33 61.3353 145.353 61.393C145.377 61.4507 145.39 61.5126 145.389 61.575C145.389 61.6374 145.377 61.6992 145.353 61.7569C145.329 61.8145 145.294 61.8669 145.25 61.911L145.246 61.9148L145.246 61.9147C145.156 61.9977 145.037 62.0426 144.914 62.04C144.792 62.0374 144.675 61.9874 144.588 61.9006C144.502 61.8138 144.452 61.6969 144.45 61.5743C144.448 61.4946 144.467 61.4165 144.503 61.3469Z" fill="#FFFFFE"/>
<path d="M140.14 59.744C140.14 59.6525 140.176 59.5647 140.241 59.5C140.306 59.4353 140.394 59.399 140.485 59.399C140.577 59.399 140.664 59.4353 140.729 59.5C140.794 59.5647 140.83 59.6525 140.83 59.744C140.83 59.8355 140.794 59.9233 140.729 59.988C140.664 60.0527 140.577 60.089 140.485 60.089C140.394 60.089 140.306 60.0527 140.241 59.988C140.176 59.9233 140.14 59.8355 140.14 59.744V59.744Z" fill="#FFFFFE"/>
<path fill-rule="evenodd" clip-rule="evenodd" d="M140.485 59.529C140.428 59.529 140.373 59.5516 140.333 59.592C140.293 59.6323 140.27 59.687 140.27 59.744C140.27 59.801 140.293 59.8557 140.333 59.896C140.373 59.9363 140.428 59.959 140.485 59.959C140.542 59.959 140.597 59.9363 140.637 59.896C140.677 59.8557 140.7 59.801 140.7 59.744C140.7 59.687 140.677 59.6323 140.637 59.592C140.597 59.5516 140.542 59.529 140.485 59.529ZM140.149 59.4081C140.238 59.319 140.359 59.269 140.485 59.269C140.611 59.269 140.732 59.319 140.821 59.4081C140.91 59.4972 140.96 59.618 140.96 59.744C140.96 59.87 140.91 59.9908 140.821 60.0799C140.732 60.169 140.611 60.219 140.485 60.219C140.359 60.219 140.238 60.169 140.149 60.0799C140.06 59.9908 140.01 59.87 140.01 59.744C140.01 59.618 140.06 59.4972 140.149 59.4081Z" fill="#FFFFFE"/>
<path d="M145.32 59.744C145.32 59.6525 145.356 59.5647 145.421 59.5C145.486 59.4353 145.574 59.399 145.665 59.399C145.757 59.399 145.844 59.4353 145.909 59.5C145.974 59.5647 146.01 59.6525 146.01 59.744C146.01 59.8355 145.974 59.9233 145.909 59.988C145.844 60.0527 145.757 60.089 145.665 60.089C145.574 60.089 145.486 60.0527 145.421 59.988C145.356 59.9233 145.32 59.8355 145.32 59.744Z" fill="#FFFFFE"/>
<path fill-rule="evenodd" clip-rule="evenodd" d="M145.665 59.529C145.608 59.529 145.553 59.5516 145.513 59.592C145.473 59.6323 145.45 59.687 145.45 59.744C145.45 59.801 145.473 59.8557 145.513 59.896C145.553 59.9363 145.608 59.959 145.665 59.959C145.722 59.959 145.777 59.9363 145.817 59.896C145.857 59.8557 145.88 59.801 145.88 59.744C145.88 59.687 145.857 59.6323 145.817 59.592C145.777 59.5516 145.722 59.529 145.665 59.529ZM145.329 59.4081C145.418 59.319 145.539 59.269 145.665 59.269C145.791 59.269 145.912 59.319 146.001 59.4081C146.09 59.4972 146.14 59.618 146.14 59.744C146.14 59.87 146.09 59.9908 146.001 60.0799C145.912 60.169 145.791 60.219 145.665 60.219C145.539 60.219 145.418 60.169 145.329 60.0799C145.24 59.9908 145.19 59.87 145.19 59.744C145.19 59.618 145.24 59.4972 145.329 59.4081Z" fill="#FFFFFE"/>
<path d="M141.001 61.818C140.969 61.7861 140.944 61.7482 140.926 61.7065C140.909 61.6648 140.9 61.62 140.9 61.5749C140.9 61.5297 140.909 61.4849 140.926 61.4432C140.943 61.4014 140.969 61.3635 141.001 61.3315C141.032 61.2995 141.07 61.2741 141.112 61.2568C141.154 61.2395 141.199 61.2305 141.244 61.2305C141.289 61.2304 141.334 61.2393 141.375 61.2565C141.417 61.2738 141.455 61.2991 141.487 61.331C141.552 61.3954 141.588 61.4829 141.588 61.5742C141.588 61.6654 141.552 61.7529 141.488 61.8175C141.423 61.8821 141.336 61.9184 141.244 61.9185C141.153 61.9186 141.066 61.8824 141.001 61.818V61.818Z" fill="#FFFFFE"/>
<path fill-rule="evenodd" clip-rule="evenodd" d="M141.326 61.3767C141.3 61.366 141.272 61.3605 141.244 61.3605C141.216 61.3605 141.188 61.3661 141.162 61.3769C141.136 61.3877 141.112 61.4034 141.093 61.4233C141.073 61.4432 141.057 61.4668 141.046 61.4928C141.035 61.5188 141.03 61.5466 141.03 61.5747C141.03 61.6028 141.036 61.6307 141.046 61.6566C141.057 61.6825 141.073 61.7061 141.093 61.726C141.133 61.7661 141.187 61.7886 141.244 61.7885C141.301 61.7885 141.355 61.7658 141.396 61.7257C141.436 61.6855 141.458 61.631 141.458 61.5743C141.458 61.5175 141.435 61.4631 141.395 61.423C141.375 61.4032 141.352 61.3874 141.326 61.3767ZM141.244 61.1005C141.306 61.1004 141.367 61.1126 141.425 61.1364C141.483 61.1602 141.535 61.195 141.579 61.239C141.668 61.3278 141.718 61.4483 141.718 61.574C141.718 61.6997 141.668 61.8203 141.58 61.9093C141.491 61.9983 141.37 62.0484 141.245 62.0485C141.119 62.0486 140.998 61.9988 140.909 61.91C140.865 61.8661 140.83 61.8138 140.806 61.7563C140.782 61.6989 140.77 61.6372 140.77 61.575C140.77 61.5127 140.782 61.4511 140.806 61.3936C140.83 61.336 140.865 61.2837 140.909 61.2397C140.952 61.1956 141.005 61.1606 141.062 61.1368C141.12 61.1129 141.181 61.1006 141.244 61.1005Z" fill="#FFFFFE"/>
<path d="M144.67 58.158C144.638 58.126 144.613 58.0879 144.595 58.0461C144.578 58.0042 144.569 57.9594 144.569 57.9141C144.569 57.8689 144.578 57.8241 144.596 57.7823C144.613 57.7405 144.639 57.7025 144.671 57.6705C144.703 57.6385 144.741 57.6132 144.782 57.5959C144.824 57.5786 144.869 57.5697 144.914 57.5698C144.96 57.5698 145.004 57.5788 145.046 57.5962C145.088 57.6135 145.126 57.639 145.158 57.671C145.223 57.7356 145.259 57.8232 145.259 57.9145C145.259 58.0058 145.223 58.0934 145.158 58.158C145.093 58.2226 145.006 58.2589 144.915 58.2589C144.823 58.2589 144.736 58.2226 144.671 58.158H144.67Z" fill="#FFFFFE"/>
<path fill-rule="evenodd" clip-rule="evenodd" d="M144.914 57.6998C144.886 57.6998 144.858 57.7053 144.832 57.716C144.806 57.7268 144.782 57.7426 144.762 57.7625C144.742 57.7824 144.727 57.8061 144.716 57.8321C144.705 57.8582 144.699 57.8861 144.699 57.9143C144.699 57.9425 144.705 57.9704 144.716 57.9965C144.724 58.0172 144.736 58.0364 144.75 58.0535L144.763 58.0661C144.803 58.1063 144.858 58.1289 144.915 58.1289C144.971 58.1289 145.026 58.1063 145.066 58.0661C145.106 58.0259 145.129 57.9714 145.129 57.9145C145.129 57.8576 145.106 57.8031 145.066 57.7629L145.066 57.7628C145.046 57.7429 145.022 57.727 144.996 57.7162C144.97 57.7054 144.942 57.6998 144.914 57.6998ZM144.733 57.4757C144.79 57.4519 144.852 57.4397 144.915 57.4398C144.977 57.4399 145.039 57.4522 145.096 57.4761C145.154 57.5 145.206 57.535 145.25 57.5791C145.339 57.6681 145.389 57.7887 145.389 57.9145C145.389 58.0403 145.339 58.161 145.25 58.2499C145.161 58.3389 145.04 58.3889 144.915 58.3889C144.808 58.3889 144.705 58.353 144.622 58.288H144.616L144.578 58.2498C144.534 58.2057 144.499 58.1533 144.475 58.0957C144.451 58.0381 144.439 57.9763 144.439 57.914C144.439 57.8517 144.452 57.79 144.476 57.7324C144.5 57.6748 144.535 57.6225 144.579 57.5785C144.623 57.5345 144.675 57.4995 144.733 57.4757ZM145.25 57.5791C145.25 57.5791 145.25 57.5792 145.25 57.5792L145.158 57.671L145.25 57.5791C145.25 57.5791 145.25 57.5791 145.25 57.5791Z" fill="#FFFFFE"/>
<path fill-rule="evenodd" clip-rule="evenodd" d="M133.33 59.4181L132.678 60.2331L132.482 60.0769L133.134 59.2619L133.33 59.4181Z" fill="#D8232A"/>
<path fill-rule="evenodd" clip-rule="evenodd" d="M152.823 60.0768L153.476 59.2618L153.671 59.4182L153.018 60.2332L152.823 60.0768Z" fill="#D8232A"/>
<path fill-rule="evenodd" clip-rule="evenodd" d="M133.42 61.1098L132.92 62.0268L132.7 61.9072L133.2 60.9902L133.42 61.1098Z" fill="#D8232A"/>
<path fill-rule="evenodd" clip-rule="evenodd" d="M152.73 58.3772L153.23 57.4602L153.45 57.5798L152.95 58.4968L152.73 58.3772Z" fill="#D8232A"/>
<path fill-rule="evenodd" clip-rule="evenodd" d="M133.802 62.77L133.468 63.76L133.232 63.68L133.566 62.69L133.802 62.77Z" fill="#D8232A"/>
<path fill-rule="evenodd" clip-rule="evenodd" d="M152.352 56.72L152.686 55.73L152.922 55.81L152.588 56.8L152.352 56.72Z" fill="#D8232A"/>
<path fill-rule="evenodd" clip-rule="evenodd" d="M134.473 64.3388L134.316 65.3718L134.068 65.3342L134.225 64.3012L134.473 64.3388Z" fill="#D8232A"/>
<path fill-rule="evenodd" clip-rule="evenodd" d="M151.688 55.1542L151.845 54.1212L152.093 54.1588L151.936 55.1918L151.688 55.1542Z" fill="#D8232A"/>
<path fill-rule="evenodd" clip-rule="evenodd" d="M135.403 65.7571L135.427 66.8011L135.177 66.8069L135.153 65.7629L135.403 65.7571Z" fill="#D8232A"/>
<path fill-rule="evenodd" clip-rule="evenodd" d="M150.757 53.7369L150.733 52.6929L150.983 52.6871L151.007 53.7311L150.757 53.7369Z" fill="#D8232A"/>
<path fill-rule="evenodd" clip-rule="evenodd" d="M136.56 67.0053L136.766 68.0294L136.52 68.0787L136.314 67.0547L136.56 67.0053Z" fill="#D8232A"/>
<path fill-rule="evenodd" clip-rule="evenodd" d="M149.6 52.4885L149.395 51.4645L149.641 51.4155L149.846 52.4395L149.6 52.4885Z" fill="#D8232A"/>
<path fill-rule="evenodd" clip-rule="evenodd" d="M137.916 68.0245L138.296 68.9975L138.064 69.0885L137.684 68.1155L137.916 68.0245Z" fill="#D8232A"/>
<path fill-rule="evenodd" clip-rule="evenodd" d="M148.234 51.4685L147.854 50.4955L148.086 50.4045L148.466 51.3775L148.234 51.4685Z" fill="#D8232A"/>
<path fill-rule="evenodd" clip-rule="evenodd" d="M139.437 68.795L139.98 69.687L139.766 69.817L139.223 68.925L139.437 68.795Z" fill="#D8232A"/>
<path fill-rule="evenodd" clip-rule="evenodd" d="M146.716 50.697L146.173 49.805L146.387 49.675L146.93 50.567L146.716 50.697Z" fill="#D8232A"/>
<path fill-rule="evenodd" clip-rule="evenodd" d="M141.064 69.2874L141.754 70.0714L141.566 70.2366L140.876 69.4526L141.064 69.2874Z" fill="#D8232A"/>
<path fill-rule="evenodd" clip-rule="evenodd" d="M145.096 50.2066L144.406 49.4226L144.594 49.2574L145.284 50.0414L145.096 50.2066Z" fill="#D8232A"/>
<path fill-rule="evenodd" clip-rule="evenodd" d="M142.748 69.4924L143.564 70.1454L143.408 70.3406L142.592 69.6876L142.748 69.4924Z" fill="#D8232A"/>
<path fill-rule="evenodd" clip-rule="evenodd" d="M143.408 49.9997L142.592 49.3477L142.748 49.1523L143.564 49.8043L143.408 49.9997Z" fill="#D8232A"/>
<path fill-rule="evenodd" clip-rule="evenodd" d="M144.45 69.4003L145.366 69.9013L145.246 70.1207L144.33 69.6197L144.45 69.4003Z" fill="#D8232A"/>
<path fill-rule="evenodd" clip-rule="evenodd" d="M141.707 50.0907L140.79 49.5897L140.91 49.3703L141.827 49.8713L141.707 50.0907Z" fill="#D8232A"/>
<path fill-rule="evenodd" clip-rule="evenodd" d="M146.1 69.0216L147.09 69.3556L147.01 69.5924L146.02 69.2584L146.1 69.0216Z" fill="#D8232A"/>
<path fill-rule="evenodd" clip-rule="evenodd" d="M140.05 50.4724L139.06 50.1384L139.14 49.9016L140.13 50.2355L140.05 50.4724Z" fill="#D8232A"/>
<path fill-rule="evenodd" clip-rule="evenodd" d="M147.669 68.3484L148.702 68.5054L148.664 68.7526L147.631 68.5956L147.669 68.3484Z" fill="#D8232A"/>
<path fill-rule="evenodd" clip-rule="evenodd" d="M138.494 51.1426L137.461 50.9856L137.499 50.7384L138.532 50.8954L138.494 51.1426Z" fill="#D8232A"/>
<path fill-rule="evenodd" clip-rule="evenodd" d="M149.087 67.428L150.131 67.403L150.137 67.653L149.093 67.678L149.087 67.428Z" fill="#D8232A"/>
<path fill-rule="evenodd" clip-rule="evenodd" d="M137.067 52.073L136.023 52.098L136.017 51.848L137.061 51.823L137.067 52.073Z" fill="#D8232A"/>
<path fill-rule="evenodd" clip-rule="evenodd" d="M150.335 66.2604L151.359 66.0554L151.409 66.3006L150.385 66.5056L150.335 66.2604Z" fill="#D8232A"/>
<path fill-rule="evenodd" clip-rule="evenodd" d="M135.819 53.2295L134.795 53.4355L134.745 53.1905L135.769 52.9845L135.819 53.2295Z" fill="#D8232A"/>
<path fill-rule="evenodd" clip-rule="evenodd" d="M151.354 64.9036L152.327 64.5236L152.418 64.7564L151.445 65.1364L151.354 64.9036Z" fill="#D8232A"/>
<path fill-rule="evenodd" clip-rule="evenodd" d="M134.798 54.5864L133.825 54.9664L133.734 54.7336L134.708 54.3536L134.798 54.5864Z" fill="#D8232A"/>
<path fill-rule="evenodd" clip-rule="evenodd" d="M152.125 63.3862L153.017 62.8432L153.147 63.0568L152.255 63.5998L152.125 63.3862Z" fill="#D8232A"/>
<path fill-rule="evenodd" clip-rule="evenodd" d="M134.027 56.1068L133.135 56.6498L133.005 56.4362L133.897 55.8932L134.027 56.1068Z" fill="#D8232A"/>
<path fill-rule="evenodd" clip-rule="evenodd" d="M152.617 61.7662L153.401 61.0762L153.567 61.2638L152.783 61.9538L152.617 61.7662Z" fill="#D8232A"/>
<path fill-rule="evenodd" clip-rule="evenodd" d="M133.537 57.7338L132.753 58.4238L132.587 58.2362L133.371 57.5462L133.537 57.7338Z" fill="#D8232A"/>
<path fill-rule="evenodd" clip-rule="evenodd" d="M143.076 50C137.695 50 133.33 54.3648 133.33 59.746C133.33 65.1283 137.695 69.493 143.076 69.493C148.458 69.493 152.823 65.1283 152.823 59.746C152.823 54.3648 148.458 50 143.076 50ZM133.11 59.746C133.11 54.2432 137.573 49.78 143.076 49.78C148.58 49.78 153.043 54.2432 153.043 59.746C153.043 65.2498 148.58 69.713 143.076 69.713C137.573 69.713 133.11 65.2497 133.11 59.746Z" fill="#D8232A"/>
<path d="M142.53 52.81L142.315 55.742C141.414 55.9161 140.598 56.3884 139.998 57.083L137.353 55.803C137.94 54.9515 138.709 54.2411 139.604 53.7235C140.499 53.2058 141.498 52.8938 142.529 52.81H142.53ZM136.798 62.74C136.351 61.8068 136.119 60.7849 136.12 59.75C136.12 58.682 136.364 57.668 136.798 56.76L139.228 58.412C138.925 59.2787 138.925 60.2223 139.228 61.089L136.798 62.74ZM142.529 66.69C141.498 66.6062 140.499 66.2942 139.604 65.7765C138.709 65.2588 137.941 64.5485 137.354 63.697L139.999 62.417C140.599 63.1114 141.414 63.5837 142.315 63.758L142.529 66.69ZM148.801 63.697C148.216 64.5482 147.449 65.2584 146.556 65.7761C145.662 66.2938 144.664 66.606 143.635 66.69L143.849 63.758C144.748 63.5838 145.563 63.1117 146.161 62.418L148.801 63.697ZM149.359 56.761C149.804 57.6948 150.035 58.7164 150.034 59.751C150.034 60.82 149.791 61.833 149.359 62.74L146.936 61.09C147.239 60.2231 147.239 59.2789 146.936 58.412L149.359 56.761ZM143.635 52.81C144.666 52.8939 145.665 53.2061 146.56 53.7239C147.456 54.2418 148.224 54.9523 148.811 55.804L146.166 57.084C145.567 56.3891 144.751 55.9164 143.85 55.742L143.635 52.81Z" fill="#D8232A"/>
<path d="M143.08 58.98C143.284 58.98 143.48 59.0611 143.625 59.2055C143.769 59.3499 143.85 59.5458 143.85 59.75C143.85 59.9542 143.769 60.1501 143.625 60.2945C143.48 60.4389 143.284 60.52 143.08 60.52C142.876 60.52 142.68 60.4389 142.536 60.2945C142.391 60.1501 142.31 59.9542 142.31 59.75C142.31 59.5458 142.391 59.3499 142.536 59.2055C142.68 59.0611 142.876 58.98 143.08 58.98" fill="#D8232A"/>
<path d="M121.184 70.02H115.92V49.42H121.184V58.775L127.049 49.42H132.571L125.733 59.691L133 70.02H126.85L121.184 61.037V70.02Z" fill="#FFFFFE"/>
</svg>
