<svg xmlns="http://www.w3.org/2000/svg" xmlns:xlink="http://www.w3.org/1999/xlink" width="180" height="71" viewBox="0 0 180 71"><defs><path id="n8fma" d="M197.06 78.047h60.672V55.52H197.06z"/><path id="n8fmb" d="M249.063 56.42h6.724v20.6h-4.778l.171-15.679-4.463 15.678h-3.49l-4.435-15.85.143 15.85H234.1V56.42h6.78L245 70.067l4.063-13.647"/><path id="n8fmc" d="M173.143 51.201a1.426 1.426 0 0 0 .71 1.23 1.376 1.376 0 0 0 1.413 0c.22-.13.393-.305.52-.525.126-.22.19-.455.19-.705a1.414 1.414 0 0 0-.715-1.246 1.39 1.39 0 0 0-1.411 0 1.38 1.38 0 0 0-.52.52 1.444 1.444 0 0 0-.187.726zm-.393-.005c0-.316.081-.615.245-.898a1.75 1.75 0 0 1 .653-.65 1.76 1.76 0 0 1 .903-.248c.32 0 .619.08.896.242a1.803 1.803 0 0 1 .9 1.544c0 .167-.018.322-.055.465a1.668 1.668 0 0 1-.184.428 1.803 1.803 0 0 1-2.246.763 1.755 1.755 0 0 1-.576-.385 1.875 1.875 0 0 1-.393-.574 1.682 1.682 0 0 1-.143-.687z"/><path id="n8fmd" d="M178.436 52.203h-.232a.82.82 0 0 1-.44-.13.958.958 0 0 1-.335-.364 1.105 1.105 0 0 1-.126-.534c0-.195.037-.375.113-.542a.958.958 0 0 1 .32-.358.895.895 0 0 1 .457-.123h.243zm.382-2.05h.24c.167 0 .317.042.452.127.134.085.239.204.314.355.075.152.112.332.112.54 0 .2-.042.38-.125.534a.95.95 0 0 1-.332.363.805.805 0 0 1-.436.13h-.225zm-.392-.33h-.25c-.181 0-.348.032-.5.096a1.148 1.148 0 0 0-.399.278c-.112.121-.2.264-.263.43a1.555 1.555 0 0 0-.094.558c0 .19.034.37.102.54.068.17.16.315.278.432.117.117.254.207.41.268.15.065.312.097.486.097h.23v.403h.392v-.403h.26a1.2 1.2 0 0 0 1.074-.633c.111-.2.167-.435.167-.704 0-.2-.031-.385-.092-.554a1.256 1.256 0 0 0-.26-.434 1.144 1.144 0 0 0-.398-.278 1.275 1.275 0 0 0-.5-.097h-.25v-.362h-.393z"/><path id="n8fme" d="M184.142 52.918h-.393v-2.665l-2.689 2.813v-3.613h.388v2.69l2.694-2.833v3.608"/><path id="n8fmf" d="M187.418 52.915h-2.338V49.46h.398v3.083h1.557V49.46h.383v3.083h.382v1.035h-.382v-.663"/><path id="n8fmg" d="M191.463 52.918h-.394v-2.665l-2.689 2.813v-3.613h.388v2.69l2.695-2.833v3.608"/><path id="n8fmh" d="M194.154 51.581l-.572-1.394-.594 1.394h1.166zm.144.352h-1.476l-.42.984-.412.001 1.587-3.628 1.557 3.628h-.424z"/><path id="n8fmi" d="M195.803 49.46h2.19v3.465h-.398v-3.093h-1.41v1.685c0 .626-.157 1.095-.474 1.408h-.561c.13-.099.242-.22.34-.362.096-.143.172-.303.226-.48a2.172 2.172 0 0 0 .087-.577V49.46"/><path id="n8fmj" d="M199.308 52.564h.33c.61 0 .915-.209.915-.626a.585.585 0 0 0-.1-.341.574.574 0 0 0-.305-.213 1.5 1.5 0 0 0-.51-.072h-.33v1.252zm1.648-.624c0 .174-.04.335-.122.485a.893.893 0 0 1-.39.362c-.18.092-.4.138-.662.138h-.862V49.46h.388v1.526h.536c.36 0 .636.09.826.268.191.178.286.4.286.666z"/><path id="n8fmk" d="M202.078 50.884h1.76V49.47h.384v3.465h-.383v-1.69h-1.761v1.69h-.398V49.47h.398v1.414"/><path id="n8fml" d="M205.877 52.564c.613 0 .92-.209.92-.626a.583.583 0 0 0-.101-.341.577.577 0 0 0-.306-.213 1.512 1.512 0 0 0-.513-.072h-.33v1.252zm1.322-.624c0 .174-.041.335-.123.485a.894.894 0 0 1-.39.362c-.18.092-.4.138-.663.138h-.863V49.46h.388v1.526h.537c.36 0 .637.09.827.268.191.178.287.4.287.666zm.239-2.48h.402v3.465h-.402z"/><path id="n8fmm" d="M209.563 48.71h.3a.467.467 0 0 0 .23.403c.07.041.149.062.233.062.085 0 .162-.02.232-.062a.499.499 0 0 0 .17-.166.435.435 0 0 0 .066-.237h.3a.73.73 0 0 1-.106.385.796.796 0 0 1-.28.279.736.736 0 0 1-.382.102.727.727 0 0 1-.381-.108.7.7 0 0 1-.28-.275.762.762 0 0 1-.102-.383zm2.3 4.2h-.394v-2.665l-2.689 2.813v-3.613h.388v2.69l2.695-2.833z"/><path id="n8fmn" d="M214.412 52.565h1.669v-2.734h-1.225v1.176c0 .34-.018.607-.053.8a1.433 1.433 0 0 1-.146.447c-.061.105-.143.21-.245.311zm.061-3.105h1.99v3.103h.388v1.036h-.387v-.674h-2.261v.674h-.383v-1.036h.082c.15-.123.262-.233.337-.334.074-.1.132-.245.173-.434.04-.19.061-.451.061-.784z"/><path id="n8fmo" d="M220.523 52.918h-.394v-2.665l-2.689 2.813v-3.613h.388v2.69l2.695-2.833v3.608"/><path id="n8fmp" d="M221.613 49.46h2.19v3.465h-.399v-3.093h-1.408v1.685c0 .626-.158 1.095-.475 1.408h-.561c.13-.099.242-.22.34-.362.096-.143.172-.303.226-.48.027-.092.049-.187.064-.286.015-.098.023-.195.023-.29V49.46"/><path id="n8fmq" d="M226.516 49.822h-1.398v1.026h1.367v.368h-1.367v1.347h1.398v.362h-1.786V49.46h1.786v.362"/><path id="n8fmr" d="M227.728 51.073h.309c.148 0 .279-.024.394-.073a.581.581 0 0 0 .25-.225.668.668 0 0 0 .083-.343c0-.407-.252-.61-.758-.61h-.278v1.25zm0 .336v1.516h-.398V49.46h.633c.21 0 .38.018.51.053a.95.95 0 0 1 .602.519.976.976 0 0 1 .082.403.994.994 0 0 1-.13.512.853.853 0 0 1-.383.342c-.168.08-.363.12-.584.12z"/><path id="n8fms" d="M231.593 51.201a1.427 1.427 0 0 0 .71 1.23 1.374 1.374 0 0 0 1.413 0c.22-.13.393-.305.52-.525.126-.22.19-.455.19-.705a1.414 1.414 0 0 0-.715-1.246 1.39 1.39 0 0 0-1.41 0 1.38 1.38 0 0 0-.521.52 1.444 1.444 0 0 0-.187.726zm-.393-.005c0-.316.082-.615.245-.898.153-.268.37-.485.653-.65.283-.165.584-.248.903-.248a1.806 1.806 0 0 1 1.554.898c.162.276.243.572.243.888a1.656 1.656 0 0 1-.24.893 1.803 1.803 0 0 1-2.246.763 1.761 1.761 0 0 1-.576-.385 1.88 1.88 0 0 1-.393-.574 1.682 1.682 0 0 1-.143-.687z"/><path id="n8fmt" d="M237.317 51.581l-.575-1.394-.598 1.394h1.173zm.141.352h-1.476l-.42.984-.412.001 1.587-3.628 1.557 3.628h-.424z"/><path id="n8fmu" d="M239.013 51.201a1.427 1.427 0 0 0 .71 1.23 1.374 1.374 0 0 0 1.413 0c.22-.13.393-.305.52-.525.126-.22.19-.455.19-.705a1.414 1.414 0 0 0-.716-1.246 1.39 1.39 0 0 0-1.41 0 1.38 1.38 0 0 0-.52.52 1.444 1.444 0 0 0-.187.726zm-.393-.005c0-.316.081-.615.245-.898a1.75 1.75 0 0 1 .653-.65c.282-.165.583-.248.903-.248.32 0 .619.08.896.242a1.803 1.803 0 0 1 .9 1.544 1.656 1.656 0 0 1-.24.893 1.803 1.803 0 0 1-2.245.763 1.755 1.755 0 0 1-.576-.385 1.875 1.875 0 0 1-.393-.574 1.682 1.682 0 0 1-.143-.687z"/><path id="n8fmv" d="M244.622 50.576l-.342-.128.52-1.158.245.092-.423 1.194zm.753-.001l-.34-.127.53-1.158.25.092z"/><path id="n8fmw" d="M246.25 52.919l.566-3.649 1.333 2.914 1.357-2.914.526 3.649h-.394l-.32-2.409-1.173 2.551-1.16-2.551-.343 2.409h-.392"/><path id="n8fmx" d="M252.497 51.581l-.575-1.394-.598 1.394h1.173zm.141.352h-1.476l-.42.984-.412.001 1.587-3.628 1.557 3.628h-.424z"/><path id="n8fmy" d="M255.176 51.088c.102.02.2.073.296.158a.971.971 0 0 1 .23.309c.058.12.087.246.087.375 0 .157-.05.314-.148.472-.1.158-.237.29-.414.396a1.037 1.037 0 0 1-.536.158c-.262 0-.48-.042-.656-.127a.864.864 0 0 1-.395-.378l.27-.291c.085.14.192.245.32.316a.886.886 0 0 0 .711.057.8.8 0 0 0 .23-.159.628.628 0 0 0 .204-.464.598.598 0 0 0-.084-.286.695.695 0 0 0-.61-.347h-.429v-.362h.43a.531.531 0 0 0 .29-.072.463.463 0 0 0 .189-.186.598.598 0 0 0 .066-.293.486.486 0 0 0-.265-.46.51.51 0 0 0-.133-.053.692.692 0 0 0-.168-.018c-.205 0-.371.08-.5.24l-.281-.281.22-.174a.892.892 0 0 1 .216-.107c.073-.024.135-.04.186-.048.052-.009.111-.013.18-.013h.06c.17 0 .32.037.45.112a.75.75 0 0 1 .316.314c.078.141.117.3.117.477a.89.89 0 0 1-.117.419.8.8 0 0 1-.332.316"/><path id="n8fmz" d="M257.627 49.29l.341.122-.52 1.164-.253-.098.432-1.188zm-.76 0l.341.122-.516 1.164-.252-.098z"/><path id="n8fmA" d="M221.084 62.39a4.354 4.354 0 1 1-.002 8.709 4.354 4.354 0 0 1 .002-8.709"/><path id="n8fmB" d="M221.075 56.21c5.817 0 10.535 4.718 10.535 10.535s-4.718 10.535-10.535 10.535-10.535-4.718-10.535-10.535 4.718-10.535 10.535-10.535"/><path id="n8fmC" d="M221.076 60.47a6.277 6.277 0 1 1-.002 12.554 6.277 6.277 0 0 1 .002-12.554"/><path id="n8fmD" d="M221.076 60.8a5.947 5.947 0 1 1-.002 11.894 5.947 5.947 0 0 1 .002-11.894z"/><path id="n8fmE" d="M217.944 66.06h6.272c.316 0 .574.31.574.688 0 .378-.258.688-.574.688h-6.272c-.316 0-.574-.31-.574-.688 0-.379.258-.688.574-.688z"/><path id="n8fmF" d="M218.376 68.481l4.435-4.434c.223-.224.625-.188.892.08.268.267.304.669.08.892l-4.434 4.435c-.223.223-.625.187-.892-.08-.268-.268-.304-.67-.08-.893z"/><path id="n8fmG" d="M220.39 69.886v-6.272c0-.316.31-.574.688-.574.378 0 .688.258.688.574v6.272c0 .316-.31.574-.688.574-.379 0-.688-.258-.688-.574z"/><path id="n8fmH" d="M222.81 69.444l-4.434-4.435c-.223-.223-.187-.624.081-.892s.669-.304.892-.08l4.435 4.434c.223.223.187.625-.08.892-.268.268-.67.304-.893.08z"/><path id="n8fmI" d="M221.08 64.94a1.811 1.811 0 1 1 0 3.622 1.811 1.811 0 0 1 0-3.622z"/><path id="n8fmJ" d="M221.074 63.81a.344.344 0 1 1 0 .689.344.344 0 0 1 0-.689z"/><path id="n8fmK" d="M221.074 68.99a.345.345 0 1 1 0 .69.345.345 0 0 1 0-.69z"/><path id="n8fmL" d="M219.001 64.671a.344.344 0 1 1 .487.486.344.344 0 0 1-.487-.486z"/><path id="n8fmM" d="M222.67 68.33a.345.345 0 1 1 .488.489.345.345 0 0 1-.487-.488z"/><path id="n8fmN" d="M218.14 66.744a.345.345 0 1 1 .69 0 .345.345 0 0 1-.69 0z"/><path id="n8fmO" d="M223.32 66.744a.345.345 0 1 1 .69 0 .345.345 0 0 1-.69 0z"/><path id="n8fmP" d="M219.001 68.818a.344.344 0 1 1 .486-.487.344.344 0 0 1-.486.487z"/><path id="n8fmQ" d="M222.67 65.158a.344.344 0 1 1 .488-.487.344.344 0 0 1-.487.487z"/><path id="n8fmR" d="M210.58 67.155l.652-.815"/><path id="n8fmS" d="M231.573 66.34l-.653.815"/><path id="n8fmT" d="M210.81 68.967l.5-.917"/><path id="n8fmU" d="M231.34 64.52l-.5.917"/><path id="n8fmV" d="M211.35 70.72l.334-.99"/><path id="n8fmW" d="M230.804 62.77l-.334.99"/><path id="n8fmX" d="M212.192 72.353l.157-1.033"/><path id="n8fmY" d="M229.969 61.14l-.157 1.033"/><path id="n8fmZ" d="M213.302 73.804l-.024-1.044"/><path id="n8fmaa" d="M228.858 59.69l.024 1.044"/><path id="n8fmab" d="M214.643 75.054l-.206-1.024"/><path id="n8fmac" d="M227.518 58.44l.205 1.024"/><path id="n8fmad" d="M216.18 76.043l-.38-.973"/><path id="n8fmae" d="M225.97 57.45l.38.973"/><path id="n8fmaf" d="M217.873 76.752l-.543-.892"/><path id="n8fmag" d="M224.28 56.74l.543.892"/><path id="n8fmah" d="M219.66 77.154l-.69-.784"/><path id="n8fmai" d="M222.5 56.34l.69.784"/><path id="n8fmaj" d="M221.486 77.243l-.816-.653"/><path id="n8fmak" d="M220.67 56.25l.816.652"/><path id="n8fmal" d="M223.306 77.011l-.916-.501"/><path id="n8fmam" d="M218.85 56.48l.917.501"/><path id="n8fman" d="M225.05 76.474l-.99-.334"/><path id="n8fmao" d="M217.1 57.02l.99.334"/><path id="n8fmap" d="M226.683 75.629l-1.033-.157"/><path id="n8fmaq" d="M215.48 57.862l1.033.157"/><path id="n8fmar" d="M228.134 74.528l-1.044.025"/><path id="n8fmas" d="M214.02 58.973l1.044-.025"/><path id="n8fmat" d="M229.384 73.178l-1.024.205"/><path id="n8fmau" d="M212.77 60.313l1.024-.206"/><path id="n8fmav" d="M230.373 71.64l-.973.38"/><path id="n8fmaw" d="M211.78 61.85l.973-.38"/><path id="n8fmax" d="M231.082 69.95l-.892.543"/><path id="n8fmay" d="M211.07 63.543l.892-.543"/><path id="n8fmaz" d="M231.484 68.17l-.784.69"/><path id="n8fmaA" d="M210.67 65.33l.784-.69"/><path id="n8fmaB" d="M221.076 56.89c5.443 0 9.857 4.414 9.857 9.856 0 5.443-4.414 9.857-9.857 9.857-5.442 0-9.856-4.414-9.856-9.857 0-5.442 4.414-9.856 9.856-9.856z"/><path id="n8fmaC" d="M220.53 59.81l-.215 2.932a4.085 4.085 0 0 0-2.317 1.341l-2.645-1.28a6.972 6.972 0 0 1 5.176-2.993zm-5.732 9.93a6.903 6.903 0 0 1-.678-2.99c0-1.068.244-2.082.678-2.99l2.43 1.652a4.06 4.06 0 0 0 0 2.677zm5.731 3.95a6.97 6.97 0 0 1-5.175-2.993l2.645-1.28a4.085 4.085 0 0 0 2.316 1.341zm6.272-2.993a6.954 6.954 0 0 1-5.166 2.993l.214-2.932a4.077 4.077 0 0 0 2.312-1.34zm.558-6.936a6.93 6.93 0 0 1 .675 2.99c0 1.069-.243 2.082-.675 2.989l-2.423-1.65a4.055 4.055 0 0 0 0-2.678zm-5.724-3.951a6.972 6.972 0 0 1 5.176 2.994l-2.645 1.28a4.083 4.083 0 0 0-2.316-1.342z"/><path id="n8fmaD" d="M221.08 65.98a.77.77 0 1 1 0 1.54.77.77 0 0 1 0-1.54"/><path id="n8fmaE" d="M144.855 78.047l-8.255-3.738-.954 3.738h-17.539l-5.265-11.827-5.265 11.827h-9.542l-5.263-11.873-5.287 11.873H78L88.03 55.52h9.459l5.328 11.915 5.26-11.915h9.485l6.172 13.862h5.183L144.87 7l15.924 62.382h25.765l-5.74-2.599 8.22-2.599h-20.725l3.858-8.664h29.503l3.858 8.664-3.712 2.6 6.026 2.598 3.857 8.665h-57.639l-.954-3.738-8.256 3.738zm0-9.51l-6.079-2.752 6.08-23.815 6.093 23.87z"/><path id="n8fmaF" d="M199.184 77.02h-5.264v-20.6h5.264v9.355l5.865-9.355h5.522l-6.838 10.271L211 77.02h-6.15l-5.666-8.983v8.983"/></defs><g><g transform="translate(-78 -7)"><g><use fill="#d8232a" xlink:href="#n8fma"/></g><g><use fill="#fffffe" xlink:href="#n8fmb"/></g><g><use fill="#1a1919" xlink:href="#n8fmc"/></g><g><use fill="#1a1919" xlink:href="#n8fmd"/></g><g><use fill="#1a1919" xlink:href="#n8fme"/></g><g><use fill="#1a1919" xlink:href="#n8fmf"/></g><g><use fill="#1a1919" xlink:href="#n8fmg"/></g><g><use fill="#1a1919" xlink:href="#n8fmh"/></g><g><use fill="#1a1919" xlink:href="#n8fmi"/></g><g><use fill="#1a1919" xlink:href="#n8fmj"/></g><g><use fill="#1a1919" xlink:href="#n8fmk"/></g><g><use fill="#1a1919" xlink:href="#n8fml"/></g><g><use fill="#1a1919" xlink:href="#n8fmm"/></g><g><use fill="#1a1919" xlink:href="#n8fmn"/></g><g><use fill="#1a1919" xlink:href="#n8fmo"/></g><g><use fill="#1a1919" xlink:href="#n8fmp"/></g><g><use fill="#1a1919" xlink:href="#n8fmq"/></g><g><use fill="#1a1919" xlink:href="#n8fmr"/></g><g><use fill="#1a1919" xlink:href="#n8fms"/></g><g><use fill="#1a1919" xlink:href="#n8fmt"/></g><g><use fill="#1a1919" xlink:href="#n8fmu"/></g><g><use fill="#1a1919" xlink:href="#n8fmv"/></g><g><use fill="#1a1919" xlink:href="#n8fmw"/></g><g><use fill="#1a1919" xlink:href="#n8fmx"/></g><g><use fill="#1a1919" xlink:href="#n8fmy"/></g><g><use fill="#1a1919" xlink:href="#n8fmz"/></g><g><use fill="#323937" xlink:href="#n8fmA"/></g><g><use fill="#fffffe" xlink:href="#n8fmB"/></g><g><use fill="#d8232a" xlink:href="#n8fmC"/></g><g><use fill="#fffffe" xlink:href="#n8fmD"/></g><g><use fill="#fff" fill-opacity="0" stroke="#fffffe" stroke-miterlimit="50" stroke-width=".28" xlink:href="#n8fmD"/></g><g><g><use fill="#d8232a" xlink:href="#n8fmE"/></g><g><use fill="#fff" fill-opacity="0" stroke="#fffffe" stroke-miterlimit="50" stroke-width=".26" xlink:href="#n8fmE"/></g></g><g><g><use fill="#d8232a" xlink:href="#n8fmF"/></g><g><use fill="#fff" fill-opacity="0" stroke="#fffffe" stroke-miterlimit="50" stroke-width=".26" xlink:href="#n8fmF"/></g></g><g><g><use fill="#d8232a" xlink:href="#n8fmG"/></g><g><use fill="#fff" fill-opacity="0" stroke="#fffffe" stroke-miterlimit="50" stroke-width=".26" xlink:href="#n8fmG"/></g></g><g><g><use fill="#d8232a" xlink:href="#n8fmH"/></g><g><use fill="#fff" fill-opacity="0" stroke="#fffffe" stroke-miterlimit="50" stroke-width=".26" xlink:href="#n8fmH"/></g></g><g><use fill="#fffffe" xlink:href="#n8fmI"/></g><g><use fill="#fff" fill-opacity="0" stroke="#fffffe" stroke-miterlimit="50" stroke-width=".26" xlink:href="#n8fmI"/></g><g><use fill="#fffffe" xlink:href="#n8fmJ"/></g><g><use fill="#fff" fill-opacity="0" stroke="#fffffe" stroke-miterlimit="50" stroke-width=".26" xlink:href="#n8fmJ"/></g><g><use fill="#fffffe" xlink:href="#n8fmK"/></g><g><use fill="#fff" fill-opacity="0" stroke="#fffffe" stroke-miterlimit="50" stroke-width=".26" xlink:href="#n8fmK"/></g><g><use fill="#fffffe" xlink:href="#n8fmL"/></g><g><use fill="#fff" fill-opacity="0" stroke="#fffffe" stroke-miterlimit="50" stroke-width=".26" xlink:href="#n8fmL"/></g><g><use fill="#fffffe" xlink:href="#n8fmM"/></g><g><use fill="#fff" fill-opacity="0" stroke="#fffffe" stroke-miterlimit="50" stroke-width=".26" xlink:href="#n8fmM"/></g><g><use fill="#fffffe" xlink:href="#n8fmN"/></g><g><use fill="#fff" fill-opacity="0" stroke="#fffffe" stroke-miterlimit="50" stroke-width=".26" xlink:href="#n8fmN"/></g><g><use fill="#fffffe" xlink:href="#n8fmO"/></g><g><use fill="#fff" fill-opacity="0" stroke="#fffffe" stroke-miterlimit="50" stroke-width=".26" xlink:href="#n8fmO"/></g><g><use fill="#fffffe" xlink:href="#n8fmP"/></g><g><use fill="#fff" fill-opacity="0" stroke="#fffffe" stroke-miterlimit="50" stroke-width=".26" xlink:href="#n8fmP"/></g><g><use fill="#fffffe" xlink:href="#n8fmQ"/></g><g><use fill="#fff" fill-opacity="0" stroke="#fffffe" stroke-miterlimit="50" stroke-width=".26" xlink:href="#n8fmQ"/></g><g><use fill="#fff" fill-opacity="0" stroke="#d8232a" stroke-miterlimit="50" stroke-width=".25" xlink:href="#n8fmR"/></g><g><use fill="#fff" fill-opacity="0" stroke="#d8232a" stroke-miterlimit="50" stroke-width=".25" xlink:href="#n8fmS"/></g><g><use fill="#fff" fill-opacity="0" stroke="#d8232a" stroke-miterlimit="50" stroke-width=".25" xlink:href="#n8fmT"/></g><g><use fill="#fff" fill-opacity="0" stroke="#d8232a" stroke-miterlimit="50" stroke-width=".25" xlink:href="#n8fmU"/></g><g><use fill="#fff" fill-opacity="0" stroke="#d8232a" stroke-miterlimit="50" stroke-width=".25" xlink:href="#n8fmV"/></g><g><use fill="#fff" fill-opacity="0" stroke="#d8232a" stroke-miterlimit="50" stroke-width=".25" xlink:href="#n8fmW"/></g><g><use fill="#fff" fill-opacity="0" stroke="#d8232a" stroke-miterlimit="50" stroke-width=".25" xlink:href="#n8fmX"/></g><g><use fill="#fff" fill-opacity="0" stroke="#d8232a" stroke-miterlimit="50" stroke-width=".25" xlink:href="#n8fmY"/></g><g><use fill="#fff" fill-opacity="0" stroke="#d8232a" stroke-miterlimit="50" stroke-width=".25" xlink:href="#n8fmZ"/></g><g><use fill="#fff" fill-opacity="0" stroke="#d8232a" stroke-miterlimit="50" stroke-width=".25" xlink:href="#n8fmaa"/></g><g><use fill="#fff" fill-opacity="0" stroke="#d8232a" stroke-miterlimit="50" stroke-width=".25" xlink:href="#n8fmab"/></g><g><use fill="#fff" fill-opacity="0" stroke="#d8232a" stroke-miterlimit="50" stroke-width=".25" xlink:href="#n8fmac"/></g><g><use fill="#fff" fill-opacity="0" stroke="#d8232a" stroke-miterlimit="50" stroke-width=".25" xlink:href="#n8fmad"/></g><g><use fill="#fff" fill-opacity="0" stroke="#d8232a" stroke-miterlimit="50" stroke-width=".25" xlink:href="#n8fmae"/></g><g><use fill="#fff" fill-opacity="0" stroke="#d8232a" stroke-miterlimit="50" stroke-width=".25" xlink:href="#n8fmaf"/></g><g><use fill="#fff" fill-opacity="0" stroke="#d8232a" stroke-miterlimit="50" stroke-width=".25" xlink:href="#n8fmag"/></g><g><use fill="#fff" fill-opacity="0" stroke="#d8232a" stroke-miterlimit="50" stroke-width=".25" xlink:href="#n8fmah"/></g><g><use fill="#fff" fill-opacity="0" stroke="#d8232a" stroke-miterlimit="50" stroke-width=".25" xlink:href="#n8fmai"/></g><g><use fill="#fff" fill-opacity="0" stroke="#d8232a" stroke-miterlimit="50" stroke-width=".25" xlink:href="#n8fmaj"/></g><g><use fill="#fff" fill-opacity="0" stroke="#d8232a" stroke-miterlimit="50" stroke-width=".25" xlink:href="#n8fmak"/></g><g><use fill="#fff" fill-opacity="0" stroke="#d8232a" stroke-miterlimit="50" stroke-width=".25" xlink:href="#n8fmal"/></g><g><use fill="#fff" fill-opacity="0" stroke="#d8232a" stroke-miterlimit="50" stroke-width=".25" xlink:href="#n8fmam"/></g><g><use fill="#fff" fill-opacity="0" stroke="#d8232a" stroke-miterlimit="50" stroke-width=".25" xlink:href="#n8fman"/></g><g><use fill="#fff" fill-opacity="0" stroke="#d8232a" stroke-miterlimit="50" stroke-width=".25" xlink:href="#n8fmao"/></g><g><use fill="#fff" fill-opacity="0" stroke="#d8232a" stroke-miterlimit="50" stroke-width=".25" xlink:href="#n8fmap"/></g><g><use fill="#fff" fill-opacity="0" stroke="#d8232a" stroke-miterlimit="50" stroke-width=".25" xlink:href="#n8fmaq"/></g><g><use fill="#fff" fill-opacity="0" stroke="#d8232a" stroke-miterlimit="50" stroke-width=".25" xlink:href="#n8fmar"/></g><g><use fill="#fff" fill-opacity="0" stroke="#d8232a" stroke-miterlimit="50" stroke-width=".25" xlink:href="#n8fmas"/></g><g><use fill="#fff" fill-opacity="0" stroke="#d8232a" stroke-miterlimit="50" stroke-width=".25" xlink:href="#n8fmat"/></g><g><use fill="#fff" fill-opacity="0" stroke="#d8232a" stroke-miterlimit="50" stroke-width=".25" xlink:href="#n8fmau"/></g><g><use fill="#fff" fill-opacity="0" stroke="#d8232a" stroke-miterlimit="50" stroke-width=".25" xlink:href="#n8fmav"/></g><g><use fill="#fff" fill-opacity="0" stroke="#d8232a" stroke-miterlimit="50" stroke-width=".25" xlink:href="#n8fmaw"/></g><g><use fill="#fff" fill-opacity="0" stroke="#d8232a" stroke-miterlimit="50" stroke-width=".25" xlink:href="#n8fmax"/></g><g><use fill="#fff" fill-opacity="0" stroke="#d8232a" stroke-miterlimit="50" stroke-width=".25" xlink:href="#n8fmay"/></g><g><use fill="#fff" fill-opacity="0" stroke="#d8232a" stroke-miterlimit="50" stroke-width=".25" xlink:href="#n8fmaz"/></g><g><use fill="#fff" fill-opacity="0" stroke="#d8232a" stroke-miterlimit="50" stroke-width=".25" xlink:href="#n8fmaA"/></g><g><use fill="#fff" fill-opacity="0" stroke="#d8232a" stroke-miterlimit="50" stroke-width=".22" xlink:href="#n8fmaB"/></g><g><use fill="#d8232a" xlink:href="#n8fmaC"/></g><g><use fill="#d8232a" xlink:href="#n8fmaD"/></g><g><use fill="#d8232a" xlink:href="#n8fmaE"/></g><g><use fill="#fffffe" xlink:href="#n8fmaF"/></g></g></g></svg>