<svg xmlns="http://www.w3.org/2000/svg" xmlns:xlink="http://www.w3.org/1999/xlink"><defs><path id="6oata" d="M895 127a2 2 0 1 1 4 0 2 2 0 0 1-4 0zm10 0a2 2 0 1 1 4 0 2 2 0 0 1-4 0zm10 0a2 2 0 1 1 4 0 2 2 0 0 1-4 0z"/><path id="8tpla" d="M1319 611l1.058 1.08-6.171 6.17h18.05v1.5h-18.05l6.17 6.17L1319 627l-8-8z"/><path id="s4zxa" d="M1402.937 611l-1.058 1.08 6.17 6.17H1390v1.5h18.05l-6.171 6.17 1.058 1.08 8-8z"/><path id="jpega" d="M952.396 957.2c-1.39 1.469-3.005 3.167-4.434 4.675l-2.429-2.175-.733.908 2.826 2.533.398.359.371-.391c1.507-1.592 3.297-3.472 4.805-5.066z"/><path id="5q4na" d="M342 715c-5 0-9-4-9-9s4-9 9-9 9 4 9 9-4 9-9 9z"/><path id="5q4nb" d="M342 701v5l3 3"/><path id="7r78a" d="M1089.8 141.6l24.5-24.5 24.5 24.5 2.8-2.8-24.5-24.5 24.5-24.5-2.8-2.8-24.5 24.5-24.5-24.5-2.8 2.8 24.5 24.5-24.5 24.5z"/><path id="pkzra" d="M834 413.112l3.113-3.113-3.113-3.112.888-.887 3.111 3.113 3.113-3.113.888.887-3.114 3.112 3.113 3.113-.888.887-3.112-3.113-3.112 3.113z"/><path id="v3ica" d="M1205 133v-18h4v18zm12 0v-15h4v15zm-6 0v-10h4v10z"/><path id="psqda" d="M369.95 494.578h20.084v1.547h-20.085zm0-4.602h17.612v1.547h-17.613zm0-4.602h13.492v1.547h-13.493zm0-4.602h20.084v1.547h-20.085zm25.496-14.402v39.555H365.38v-31.371l9.378-8.184zm-26.378 7.083l6.368-1.473-.828-3.364zm24.822 30.915v-36.44h-17.847l1.093 4.452a.776.776 0 0 1-.58.945l-9.62 2.227v28.816z"/><path id="60s0a" d="M1236.744 4407v-9.123h3.067l.456-3.554h-3.523v-2.27c0-1.028.286-1.731 1.761-1.731h1.885v-3.183c-.324-.046-1.444-.139-2.742-.139-2.72 0-4.573 1.66-4.573 4.705v2.626H1230v3.554h3.075V4407z"/>
				<path id="116ta" d="M1283.353 35.515l15.652-7.824 15.652 7.824v21.523h-2.408V37.78h-26.488v19.258h-2.408zm26.47 7.07h-21.656v-2.398h21.656zm0 4.824h-21.656v-2.407h21.656zm0 4.805h-21.656v-2.398h21.656zm0 4.824h-21.656v-2.407h21.656zm-28.877-20.32v22.728h36.108V36.719l1.87.934L1320 35.5 1299 25l-21 10.5 1.077 2.153z"/>
		<path id="t9sia" d="M1297.961 4390.592a1.437 1.437 0 1 1 2.875 0 1.437 1.437 0 0 1-2.875 0zm1.197 6.408a6.17 6.17 0 0 1-6.167 6.167 6.17 6.17 0 0 1-6.167-6.167 6.17 6.17 0 0 1 6.167-6.167 6.17 6.17 0 0 1 6.167 6.167zm-2.161 0a4.007 4.007 0 1 0-4.006 4.006c2.207 0 4.006-1.799 4.006-4.006zm7.929-4.952c.065 1.28.074 1.688.074 4.952 0 3.264-.019 3.672-.074 4.952-.056 1.27-.26 2.152-.557 2.912a5.865 5.865 0 0 1-1.381 2.124 5.865 5.865 0 0 1-2.124 1.381c-.76.297-1.632.501-2.912.557-1.28.065-1.688.074-4.952.074-3.264 0-3.672-.019-4.952-.074-1.27-.056-2.152-.26-2.912-.557a5.865 5.865 0 0 1-2.124-1.381 5.865 5.865 0 0 1-1.381-2.124c-.297-.76-.501-1.632-.557-2.912-.065-1.28-.074-1.688-.074-4.952 0-3.264.019-3.672.074-4.952.056-1.27.26-2.152.557-2.912a5.865 5.865 0 0 1 1.381-2.124 5.865 5.865 0 0 1 2.124-1.381c.76-.297 1.632-.501 2.912-.557 1.28-.065 1.688-.074 4.952-.074 3.264 0 3.672.019 4.952.074 1.27.056 2.152.26 2.912.557a5.865 5.865 0 0 1 2.124 1.381 5.865 5.865 0 0 1 1.381 2.124c.297.76.501 1.632.557 2.912zm-2.087 4.952c0-3.2-.018-3.58-.074-4.85-.056-1.169-.25-1.8-.417-2.226a3.757 3.757 0 0 0-.9-1.381 3.717 3.717 0 0 0-1.382-.9c-.417-.167-1.057-.362-2.225-.417-1.261-.065-1.65-.075-4.85-.075-3.2 0-3.58.019-4.85.075-1.169.055-1.8.25-2.226.417a3.757 3.757 0 0 0-1.382.9 3.717 3.717 0 0 0-.9 1.381c-.166.418-.361 1.057-.417 2.226-.065 1.261-.074 1.65-.074 4.85 0 3.2.019 3.58.074 4.85.056 1.169.25 1.8.418 2.226.222.565.482.964.9 1.382.417.417.825.686 1.381.899.417.167 1.057.362 2.226.417 1.26.065 1.641.075 4.85.075 3.208 0 3.58-.019 4.85-.075 1.168-.055 1.799-.25 2.225-.417a3.757 3.757 0 0 0 1.382-.9c.418-.417.686-.825.9-1.381.167-.418.361-1.057.417-2.226.056-1.261.074-1.65.074-4.85z"/><radialGradient id="t9sib" cx="1287.96" cy="4408.95" r="24.21" gradientUnits="userSpaceOnUse"><stop offset="0" stop-color="#ffd776"/><stop offset=".25" stop-color="#f3a554"/><stop offset=".38" stop-color="#f15c3c"/><stop offset=".54" stop-color="#d94867"/><stop offset=".7" stop-color="#c32f87"/><stop offset=".91" stop-color="#7d63a7"/><stop offset=".99" stop-color="#5c6cb3"/></radialGradient><path id="sswra" d="M1061 4871v8h16v-8l-8 4zm0-4v2l8 4 8-4v-2z"/><path id="o741a" d="M1064.66 60.014c.28 0 .82-.56 1.1-.59a1.07 1.07 0 0 1 .77.24l.74.6.45.37a.77.77 0 0 1 .12 1.07l-.84 1.18a.3.3 0 0 1-.27.13 7.54 7.54 0 0 1-6.73-7.56 7.79 7.79 0 0 1 .27-2.05.19.19 0 0 1 .14-.13l1.59-.26a.73.73 0 0 1 .86.59l.14.6.18 1c.054.282 0 .574-.15.82-.15.25-.86.5-1 .74a5.64 5.64 0 0 0 2.61 3.35v-.1z"/><path id="q22va" d="M340.495 401.147a3.7 3.7 0 0 1-3.707-3.691c0-2.038 1.66-3.69 3.707-3.69a3.7 3.7 0 0 1 3.708 3.69c0 2.038-1.66 3.69-3.708 3.69zm5.308-8.963c-2.929-2.912-7.677-2.912-10.606 0a7.425 7.425 0 0 0 0 10.544L340.5 408l5.303-5.272a7.425 7.425 0 0 0 0-10.544z"/><path id="1x1xa" d="M526 358h-3v3.414L518.414 366H509v-8h-3v-8h3v-4h14v4h3zm-15 6h6v-4h4v-4h-10z"/><path id="r5k2a" d="M1349.53 127.939a5.374 5.374 0 0 1-3.826-1.585 5.375 5.375 0 0 1-1.584-3.825c0-1.445.563-2.803 1.584-3.825a5.374 5.374 0 0 1 3.825-1.584c1.445 0 2.804.563 3.825 1.584a5.416 5.416 0 0 1 0 7.65 5.374 5.374 0 0 1-3.825 1.585zM1360 131.5l-4.451-4.451c2.216-2.948 1.985-7.164-.696-9.845a7.482 7.482 0 0 0-5.324-2.205 7.481 7.481 0 0 0-5.324 2.205 7.48 7.48 0 0 0-2.205 5.324 7.48 7.48 0 0 0 2.205 5.324 7.48 7.48 0 0 0 5.324 2.206c1.653 0 3.224-.53 4.522-1.51l4.45 4.451z"/><path id="pr70a" d="M353 971.277l-.44-.395-6.56-5.903.881-.979 6.119 5.509 6.119-5.509.881.979-6.56 5.903z"/><path id="60wna" d="M353 787l-.44.395-6.56 5.903.881.979 6.119-5.51 6.119 5.51.881-.979-6.56-5.903z"/><path id="jejpa" d="M1292.01 57.81h.607v1.569h2.875V57.81h7.551v1.569h2.876V57.81h.627v-1.66h-14.536z"/><path id="jejpb" d="M1292.01 41.17v14.698h1.342V44.673h11.852v11.195h1.342V41.17z"/><path id="jejpc" d="M1294.297 45.543h9.959v4.303h-9.96zm8.485 9.312c-.557 0-1.008-.38-1.008-.849 0-.47.45-.85 1.008-.85.556 0 1.008.38 1.008.85 0 .469-.452.85-1.008.85zm-7.133 0c-.557 0-1.008-.379-1.008-.849s.45-.85 1.008-.85c.557 0 1.008.38 1.008.85s-.451.85-1.008.85zm-1.799-9.675v10.694h10.852V45.18z"/><path id="68fta" d="M998.84 41h6.16v6.16h-.649v-5.052l-5.282 5.282-.46-.459 5.283-5.282h-5.052zm2.92 11.351V47.16h.65V53H993v-9.41h5.84v.65h-5.191v8.111z"/></defs><symbol id="add" viewBox="0 0 24 4"><g><g transform="translate(-895 -125)"><use fill="#5f5e6b" xlink:href="#6oata"/></g></g></symbol><symbol id="ae_logo2" viewBox="0 0 15.191 20.711"><path d="M7.583 0C3.396.007-.008 3.418 0 7.605c.003.868.15 1.702.419 2.479a7.635 7.635 0 0 0 2.421 3.427 5.316 5.316 0 0 1 1.887 3.333h.002a.254.254 0 0 0 .166.213l.008.001c.006.002.013.003.018.006a9.929 9.929 0 0 0 3.232.353 9.733 9.733 0 0 0 2.151-.362h.002l.002-.001c.084-.028.15-.1.17-.186l.002-.038a5.32 5.32 0 0 1 2.09-3.502 7.614 7.614 0 0 0 2.21-3.271c.27-.778.414-1.613.412-2.478C15.184 3.396 11.771-.008 7.583 0m3.192 11.854a7.602 7.602 0 0 0-2.214 3.274 7.602 7.602 0 0 1-1.702.025c-.072-.006-.146-.015-.219-.023a7.655 7.655 0 0 0-2.419-3.428V11.7a5.31 5.31 0 0 1-1.943-4.097 5.324 5.324 0 0 1 5.311-5.326 5.321 5.321 0 0 1 5.325 5.308 5.311 5.311 0 0 1-2.139 4.269"/><path d="M10.188 6.729a.911.911 0 0 0-.909.843v.02c0 .027 0 .057-.002.083-.002.002-.002.002 0 .002a1.684 1.684 0 0 1-3.364-.027v-.018a.91.91 0 0 0-1.821.021 3.508 3.508 0 0 0 3.51 3.446A3.51 3.51 0 0 0 11.1 7.692c.002-.004.002-.008.002-.014v-.056a.911.911 0 0 0-.914-.893M10.338 17.901c-.007 0-.013 0-.02.002l-.006.002a10.595 10.595 0 0 1-2.7.35c-.193 0-.387-.004-.576-.016a10.433 10.433 0 0 1-2.143-.331c-.003 0-.007-.003-.011-.003l-.019-.002a.095.095 0 0 0-.092.08c0 .011.002.021.004.03v.002a2.83 2.83 0 0 0 2.828 2.697 2.825 2.825 0 0 0 2.823-2.713l.002-.008v-.003a.09.09 0 0 0-.09-.087"/></symbol><symbol id="arrow-left" viewBox="0 0 21 16"><g><g transform="translate(-1311 -611)"><use fill="#5f5e6b" xlink:href="#8tpla"/></g></g></symbol><symbol id="arrow-right" viewBox="0 0 21 16"><g><g transform="translate(-1390 -611)"><use fill="#5f5e6b" xlink:href="#s4zxa"/></g></g></symbol><symbol id="bank" viewBox="0 0 65 64"><g><g><g><path fill="#5f5e6b" d="M2.448 22.394l30.05-21.298L62.55 22.394zm41.228 5.303v-4.308h12.858v4.308zm2.558.984h7.762v22.734h-7.762zM58.678 52.39v4.676H6.32V52.39h3.938c.077.049.163.085.26.085h8.738a.479.479 0 0 0 .26-.085h25.965c.077.049.163.085.26.085h8.738a.479.479 0 0 0 .26-.085zm2.207 5.66a2.632 2.632 0 0 1 2.626 2.632v2.343H1.476v-2.343a2.632 2.632 0 0 1 2.627-2.632zM18.763 28.681v22.734h-7.752V28.681zm24.421 0h2.065v22.724h-25.5V28.681h2.064c.272 0 .493-.22.493-.492v-4.8h20.386v4.8c0 .272.22.492.492.492zm-34.73-.984v-4.308H21.32v4.308zm55.926-5.202L32.784.09a.494.494 0 0 0-.57 0L.617 22.495a.492.492 0 0 0 .285.894H7.47v4.8c0 .272.22.492.492.492h2.065v22.724H5.827a.492.492 0 0 0-.492.492v5.169H4.103a3.616 3.616 0 0 0-3.612 3.61v2.832c0 .271.22.492.492.492h63.03c.273 0 .493-.22.493-.492v-2.831a3.616 3.616 0 0 0-3.612-3.611h-1.232v-5.169a.492.492 0 0 0-.492-.492h-4.199V28.681h2.065c.272 0 .493-.22.493-.492v-4.8h6.566a.492.492 0 0 0 .285-.894z"/></g><g><path fill="#dd353d" d="M36.602 13.417a4.108 4.108 0 0 1-4.104 4.103 4.108 4.108 0 0 1-4.103-4.103 4.108 4.108 0 0 1 4.103-4.102 4.108 4.108 0 0 1 4.104 4.102zm-9.192 0a5.094 5.094 0 0 0 5.088 5.087 5.094 5.094 0 0 0 5.089-5.087 5.094 5.094 0 0 0-5.089-5.087 5.093 5.093 0 0 0-5.088 5.087z"/></g></g></g></symbol><symbol id="calendar" viewBox="0 0 64 64"><g><g><g><path fill="#5f5e6b" d="M.985 18.666h62.04v42.262c0 1.11-.904 2.014-2.014 2.014H2.999a2.016 2.016 0 0 1-2.014-2.014zm0-10.165c0-1.11.903-2.013 2.014-2.013h7.597v2.55a2.875 2.875 0 0 0 2.872 2.872A2.875 2.875 0 0 0 16.34 9.04V6.488h31.33v2.55a2.875 2.875 0 0 0 2.871 2.872 2.875 2.875 0 0 0 2.873-2.871V6.488h7.597c1.11 0 2.014.903 2.014 2.013v9.18H.985zm10.594-5.545c0-1.043.846-1.892 1.887-1.892 1.04 0 1.887.849 1.887 1.892v6.099a1.891 1.891 0 0 1-1.887 1.89 1.891 1.891 0 0 1-1.887-1.89zm37.067 0c0-1.043.847-1.892 1.887-1.892 1.041 0 1.888.849 1.888 1.892v6.099a1.891 1.891 0 0 1-1.888 1.89 1.891 1.891 0 0 1-1.887-1.89zM3 63.926H61A3.002 3.002 0 0 0 64 60.929V8.503a3.002 3.002 0 0 0-2.999-2.999h-7.596V2.952A2.875 2.875 0 0 0 50.533.08a2.875 2.875 0 0 0-2.871 2.872v2.552H16.338V2.952A2.875 2.875 0 0 0 13.466.08a2.875 2.875 0 0 0-2.872 2.872v2.552H3A3.002 3.002 0 0 0 0 8.503v52.425a3.002 3.002 0 0 0 2.999 2.999z"/></g><g><path fill="#dd353d" d="M22.57 24.595h5.886c.323 0 .585.262.585.585v5.886a.585.585 0 0 1-.585.585H22.57a.585.585 0 0 1-.585-.585V25.18c0-.323.262-.585.585-.585zm0 8.04h5.886c.866 0 1.57-.703 1.57-1.569V25.18c0-.866-.704-1.57-1.57-1.57H22.57c-.866 0-1.57.704-1.57 1.57v5.886c0 .866.704 1.57 1.57 1.57z"/></g><g><path fill="#dd353d" d="M9.609 24.595h5.888c.323 0 .585.262.585.585v5.886a.585.585 0 0 1-.585.585H9.61a.585.585 0 0 1-.585-.585V25.18c0-.323.262-.585.585-.585zm0 8.04h5.887a1.57 1.57 0 0 0 1.57-1.569V25.18c0-.866-.704-1.57-1.57-1.57H9.61c-.866 0-1.57.704-1.57 1.57v5.886c0 .866.704 1.57 1.57 1.57z"/></g><g><path fill="#dd353d" d="M34.955 25.18c0-.323.262-.585.584-.585h5.887c.322 0 .585.262.585.585v5.886a.585.585 0 0 1-.585.585h-5.887a.585.585 0 0 1-.584-.585zm.584 7.455h5.887c.865 0 1.57-.703 1.57-1.569V25.18c0-.866-.705-1.57-1.57-1.57h-5.887c-.865 0-1.569.704-1.569 1.57v5.886c0 .866.704 1.57 1.57 1.57z"/></g><g><path fill="#dd353d" d="M47.915 25.18c0-.323.262-.585.584-.585h5.887c.322 0 .585.262.585.585v5.886a.585.585 0 0 1-.585.585h-5.887a.585.585 0 0 1-.584-.585zm.584 7.455h5.887c.865 0 1.57-.703 1.57-1.569V25.18c0-.866-.705-1.57-1.57-1.57h-5.887c-.865 0-1.569.704-1.569 1.57v5.886c0 .866.704 1.57 1.57 1.57z"/></g><g><path fill="#dd353d" d="M9.609 37.275h5.888c.323 0 .585.262.585.585v5.886a.585.585 0 0 1-.585.585H9.61a.586.586 0 0 1-.585-.585V37.86c0-.323.262-.585.585-.585zm0 8.041h5.887c.866 0 1.57-.704 1.57-1.57V37.86c0-.866-.704-1.57-1.57-1.57H9.61c-.866 0-1.57.704-1.57 1.57v5.886c0 .866.704 1.57 1.57 1.57z"/></g><g><path fill="#dd353d" d="M22.57 37.275h5.886c.323 0 .585.262.585.585v5.886a.586.586 0 0 1-.585.585H22.57a.586.586 0 0 1-.585-.585V37.86c0-.323.262-.585.585-.585zm0 8.041h5.886c.866 0 1.57-.704 1.57-1.57V37.86c0-.866-.704-1.57-1.57-1.57H22.57c-.866 0-1.57.704-1.57 1.57v5.886c0 .866.704 1.57 1.57 1.57z"/></g><g><path fill="#dd353d" d="M34.955 37.86c0-.323.262-.585.584-.585h5.887c.322 0 .585.262.585.585v5.886a.586.586 0 0 1-.585.585h-5.887a.585.585 0 0 1-.584-.585zm.584 7.456h5.887c.865 0 1.57-.704 1.57-1.57V37.86c0-.866-.705-1.57-1.57-1.57h-5.887c-.865 0-1.569.704-1.569 1.57v5.886c0 .866.704 1.57 1.57 1.57z"/></g><g><path fill="#dd353d" d="M47.915 37.86c0-.323.262-.585.584-.585h5.887c.322 0 .585.262.585.585v5.886a.586.586 0 0 1-.585.585h-5.887a.585.585 0 0 1-.584-.585zm.584 7.456h5.887c.865 0 1.57-.704 1.57-1.57V37.86c0-.866-.705-1.57-1.57-1.57h-5.887c-.865 0-1.569.704-1.569 1.57v5.886c0 .866.704 1.57 1.57 1.57z"/></g><g><path fill="#dd353d" d="M9.609 49.954h5.888c.323 0 .585.262.585.585v5.888a.586.586 0 0 1-.585.585H9.61a.586.586 0 0 1-.585-.585v-5.888c0-.323.262-.585.585-.585zm0 8.041h5.887c.866 0 1.57-.704 1.57-1.57V50.54c0-.866-.704-1.57-1.57-1.57H9.61c-.866 0-1.57.704-1.57 1.57v5.886c0 .865.704 1.57 1.57 1.57z"/></g><g><path fill="#dd353d" d="M22.57 49.954h5.886c.323 0 .585.262.585.585v5.888a.586.586 0 0 1-.585.585H22.57a.586.586 0 0 1-.585-.585v-5.888c0-.323.262-.585.585-.585zm0 8.041h5.886c.866 0 1.57-.704 1.57-1.57V50.54c0-.866-.704-1.57-1.57-1.57H22.57c-.866 0-1.57.704-1.57 1.57v5.886c0 .865.704 1.57 1.57 1.57z"/></g><g><path fill="#dd353d" d="M34.955 50.539c0-.323.262-.585.584-.585h5.887c.322 0 .585.262.585.585v5.888a.586.586 0 0 1-.585.585h-5.887a.585.585 0 0 1-.584-.585zm.584 7.456h5.887c.865 0 1.57-.704 1.57-1.57V50.54c0-.866-.705-1.57-1.57-1.57h-5.887c-.865 0-1.569.704-1.569 1.57v5.886c0 .865.704 1.57 1.57 1.57z"/></g></g></g></symbol><symbol id="certificate" viewBox="0 0 80 64"><g><g><g><path fill="#2e60b8" d="M78.77 50.598H63.587V48.25c.055-.115.108-.23.16-.344.262-.564.53-1.146.853-1.38.329-.24.973-.318 1.596-.394.944-.114 2.015-.244 2.581-1.022.56-.77.365-1.778.176-2.752-.121-.621-.246-1.263-.117-1.659.119-.365.582-.795 1.03-1.21.147-.135.297-.276.444-.42a7.268 7.268 0 0 1 3.806-1.074c.34 0 .615-.275.615-.615V14.79a.615.615 0 0 0-.615-.616c-4.021 0-7.292-3.274-7.292-7.299a.615.615 0 0 0-.616-.615H13.791a.615.615 0 0 0-.616.615c0 4.025-3.271 7.299-7.292 7.299a.615.615 0 0 0-.616.615V37.38c0 .34.276.615.616.615 4.02 0 7.292 3.272 7.292 7.293 0 .34.276.615.616.615h34.204c.424.119.88.177 1.31.23.623.075 1.267.154 1.596.393.321.233.59.816.85 1.38h.001c0 .008-.004.015-.004.023v2.67H1.23V1.57h77.538zm-32.272-5.926H14.384a8.536 8.536 0 0 0-7.886-7.885V15.383c4.211-.302 7.584-3.679 7.886-7.892h51.232c.302 4.213 3.675 7.59 7.885 7.892v21.404a8.507 8.507 0 0 0-2.133.438c.003-.043.013-.084.013-.128 0-.992-.803-1.736-1.513-2.392-.449-.415-.912-.845-1.031-1.21-.13-.397-.004-1.038.117-1.66.189-.973.384-1.98-.176-2.751-.566-.779-1.637-.909-2.582-1.023-.623-.076-1.267-.154-1.596-.393-.321-.234-.59-.817-.85-1.38-.403-.87-.859-1.857-1.787-2.158-.89-.29-1.78.203-2.64.68-.56.311-1.14.633-1.572.633-.432 0-1.012-.322-1.574-.633-.86-.477-1.75-.969-2.64-.68-.926.302-1.383 1.288-1.785 2.158-.26.563-.53 1.146-.852 1.38-.328.24-.972.318-1.595.393-.944.115-2.015.244-2.582 1.023-.56.77-.365 1.778-.176 2.751.121.622.246 1.263.118 1.66-.12.365-.583.795-1.032 1.21-.71.656-1.513 1.4-1.513 2.392s.804 1.736 1.513 2.392c.449.415.913.845 1.032 1.21.128.396.003 1.038-.118 1.659-.155.8-.307 1.62-.05 2.314zm16.134 2.718l-.028.058a.604.604 0 0 0-.247.48v.035c-.23.453-.478.834-.773.93-.384.124-1.034-.237-1.663-.586-.698-.387-1.42-.788-2.17-.788s-1.473.4-2.171.788c-.628.349-1.277.71-1.662.586-.416-.135-.738-.83-1.049-1.504-.326-.706-.663-1.436-1.244-1.858-.587-.428-1.393-.526-2.171-.62-.73-.088-1.484-.18-1.735-.525-.246-.338-.102-1.078.037-1.793.15-.774.306-1.575.08-2.274-.219-.67-.802-1.211-1.367-1.733-.55-.509-1.118-1.035-1.118-1.49 0-.453.568-.98 1.118-1.488.565-.522 1.148-1.062 1.366-1.733.227-.7.071-1.5-.079-2.274-.14-.716-.283-1.455-.038-1.793.251-.345 1.006-.436 1.735-.525.779-.094 1.584-.192 2.171-.62.58-.422.919-1.152 1.246-1.859.31-.672.632-1.368 1.048-1.503.383-.123 1.034.236 1.663.585.697.388 1.42.788 2.17.788s1.472-.4 2.17-.788c.628-.348 1.279-.71 1.663-.585.415.135.737.83 1.048 1.503.327.706.664 1.437 1.244 1.859.587.428 1.393.525 2.172.62.729.088 1.483.18 1.734.525.246.337.103 1.077-.037 1.793-.15.774-.306 1.575-.08 2.274.219.67.803 1.21 1.367 1.733.55.509 1.118 1.035 1.118 1.489 0 .454-.568.98-1.118 1.489-.564.522-1.148 1.062-1.366 1.733-.227.699-.071 1.5.08 2.274.139.715.283 1.455.037 1.792-.251.346-1.005.437-1.735.526-.779.094-1.584.192-2.171.62-.58.422-.918 1.152-1.245 1.859zm-.275 14.474l-4.338-3.019a.615.615 0 0 0-.703 0l-4.338 3.02V49.758c.167.13.35.236.56.304.892.29 1.78-.203 2.64-.68.56-.31 1.141-.633 1.573-.633.431 0 1.012.322 1.573.634.681.378 1.38.766 2.086.765.184 0 .369-.026.553-.086.143-.046.272-.113.394-.19zM79.385.34H.615A.615.615 0 0 0 0 .955v50.259c0 .34.275.615.615.615h51.133v11.214a.615.615 0 0 0 .967.505l4.953-3.448 4.953 3.448a.617.617 0 0 0 .967-.505V51.829h15.797c.34 0 .615-.275.615-.615V.955a.615.615 0 0 0-.615-.615z"/></g><g><path fill="#dd353d" d="M17.745 17.62H61.9a.615.615 0 1 0 0-1.23H17.745a.615.615 0 1 0 0 1.23z"/></g><g><path fill="#dd353d" d="M17.745 24.75h27.898a.615.615 0 1 0 0-1.23H17.745a.615.615 0 1 0 0 1.23z"/></g><g><path fill="#dd353d" d="M35.95 30.65H17.745a.615.615 0 1 0 0 1.23H35.95a.615.615 0 1 0 0-1.23z"/></g><g><path fill="#dd353d" d="M57.752 43.854a6.76 6.76 0 0 1-6.751-6.752 6.759 6.759 0 0 1 6.751-6.751 6.76 6.76 0 0 1 6.752 6.751 6.76 6.76 0 0 1-6.752 6.752zm0-14.734c-4.401 0-7.982 3.58-7.982 7.982s3.58 7.983 7.982 7.983c4.401 0 7.983-3.581 7.983-7.983 0-4.401-3.582-7.982-7.983-7.982z"/></g></g></g></symbol><symbol id="check" viewBox="0 0 9 7"><g><g transform="translate(-944 -957)"><use fill="#fff" xlink:href="#jpega"/></g></g></symbol><symbol id="clock" viewBox="0 0 18 18"><g><g transform="translate(-333 -697)"><g><use fill="#768b9c" xlink:href="#5q4na"/></g><g><use fill="#fff" fill-opacity="0" stroke="#fff" stroke-miterlimit="50" stroke-width="2" xlink:href="#5q4nb"/></g></g></g></symbol><symbol id="close-big" viewBox="0 0 55 55"><g><g transform="translate(-1087 -87)"><use fill="#d2d9df" xlink:href="#7r78a"/></g></g></symbol><symbol id="close" viewBox="0 0 8 8"><g><g transform="translate(-834 -406)"><use fill="#fff" xlink:href="#pkzra"/></g></g></symbol><symbol id="compare" viewBox="0 0 16 18"><g><g transform="translate(-1205 -115)"><use fill="#768b9c" xlink:href="#v3ica"/></g></g></symbol><symbol id="delivery-truck" viewBox="0 0 491.1 491.1">
<path fill="#dd353d" transform="translate(0 -540.36)" d="M401.5,863.31c-12,0-23.4,4.7-32,13.2c-8.6,8.6-13.4,19.8-13.4,31.8s4.7,23.2,13.4,31.8
	c8.7,8.5,20,13.2,32,13.2c24.6,0,44.6-20.2,44.6-45S426.1,863.31,401.5,863.31z M401.5,933.31c-13.8,0-25.4-11.4-25.4-25
	s11.6-25,25.4-25c13.6,0,24.6,11.2,24.6,25S415.1,933.31,401.5,933.31z M413.1,713.41c-1.8-1.7-4.2-2.6-6.7-2.6h-51.3
	c-5.5,0-10,4.5-10,10v82c0,5.5,4.5,10,10,10h81.4c5.5,0,10-4.5,10-10v-54.9c0-2.8-1.2-5.5-3.3-7.4L413.1,713.41z M426.5,792.81
	h-61.4v-62.1h37.4l24,21.6V792.81z M157.3,863.31c-12,0-23.4,4.7-32,13.2c-8.6,8.6-13.4,19.8-13.4,31.8s4.7,23.2,13.4,31.8
	c8.7,8.5,20,13.2,32,13.2c24.6,0,44.6-20.2,44.6-45S181.9,863.31,157.3,863.31z M157.3,933.31c-13.8,0-25.4-11.4-25.4-25
	s11.6-25,25.4-25c13.6,0,24.6,11.2,24.6,25S170.9,933.31,157.3,933.31z M90.6,875.61H70.5v-26.6c0-5.5-4.5-10-10-10s-10,4.5-10,10
	v36.6c0,5.5,4.5,10,10,10h30.1c5.5,0,10-4.5,10-10S96.1,875.61,90.6,875.61z M141.3,821.11c0-5.5-4.5-10-10-10H10
	c-5.5,0-10,4.5-10,10s4.5,10,10,10h121.3C136.8,831.11,141.3,826.71,141.3,821.11z M30.3,785.01l121.3,0.7c5.5,0,10-4.4,10.1-9.9
	c0.1-5.6-4.4-10.1-9.9-10.1l-121.3-0.7c-0.1,0-0.1,0-0.1,0c-5.5,0-10,4.4-10,9.9C20.3,780.51,24.8,785.01,30.3,785.01z M50.7,739.61
	H172c5.5,0,10-4.5,10-10s-4.5-10-10-10H50.7c-5.5,0-10,4.5-10,10S45.2,739.61,50.7,739.61z M487.4,726.11L487.4,726.11l-71.6-59.3
	c-1.8-1.5-4-2.3-6.4-2.3h-84.2v-36c0-5.5-4.5-10-10-10H60.5c-5.5,0-10,4.5-10,10v73.2c0,5.5,4.5,10,10,10s10-4.5,10-10v-63.2h234.8
	v237.1h-82c-5.5,0-10,4.5-10,10s4.5,10,10,10h122.1c5.5,0,10-4.5,10-10s-4.5-10-10-10h-20.1v-191.1h80.6l65.2,54l-0.7,136.9H460
	c-5.5,0-10,4.5-10,10s4.5,10,10,10h20.3c5.5,0,10-4.4,10-9.9l0.8-151.6C491,730.91,489.7,728.01,487.4,726.11z"/>
<g>
</g>
<g>
</g>
<g>
</g>
<g>
</g>
<g>
</g>
<g>
</g>
<g>
</g>
<g>
</g>
<g>
</g>
<g>
</g>
<g>
</g>
<g>
</g>
<g>
</g>
<g>
</g>
<g>
</g>
</symbol><symbol id="doc" viewBox="0 0 31 40"><g><g transform="translate(-365 -466)"><use fill="#2e60b8" xlink:href="#psqda"/></g></g></symbol><symbol id="facebook" viewBox="0 0 11 20"><g><g transform="translate(-1230 -4387)"><use fill="#fff" xlink:href="#60s0a"/></g></g></symbol><symbol id="garage" viewBox="0 0 42 35">
		
		<g>
				<g transform="translate(-1278 -25)">
						<use fill="currentColor" xlink:href="#116ta"/>
				</g>
		</g>
</symbol><symbol id="garage2" viewBox="0 0 42 35">
<path fill-rule="evenodd" clip-rule="evenodd" d="M10.167 15.187H31.823V34.446H39.054V11.719L40.924 12.653L42 10.5L21 0L0 10.5L1.07703 12.653L2.94604 11.718V34.446H10.167V15.187ZM21.005 2.691L5.35303 10.515V32.038H7.76099V12.78H34.249V32.038H36.657V10.515L21.005 2.691Z"/>
<path d="M31.823 32.038H10.167V34.446H31.823V32.038Z"/>
<path d="M31.823 27.214H10.167V29.631H31.823V27.214Z"/>
<path d="M31.823 22.4091H10.167V24.8161H31.823V22.4091Z"/>
<path d="M31.823 17.585H10.167V20.002H31.823V17.585Z"/>
</symbol><symbol id="insta" viewBox="0 0 24 24"><g><g transform="translate(-1281 -4385)"><use fill="url(#t9sib)" xlink:href="#t9sia"/></g></g></symbol><symbol id="mail" viewBox="0 0 16 12"><g><g transform="translate(-1061 -4867)"><use fill="#fff" xlink:href="#sswra"/></g></g></symbol><symbol id="phone" viewBox="0 0 8 10"><g><g transform="translate(-1060 -53)"><use fill="#2e60b8" xlink:href="#o741a"/></g></g></symbol><symbol id="pin-big" viewBox="0 0 64 72"><g><g><g><path fill="#dd353d" d="M20.103 21.793c0-6.562 5.338-11.9 11.9-11.9 6.56 0 11.9 5.338 11.9 11.9 0 6.561-5.34 11.9-11.9 11.9-6.562 0-11.9-5.339-11.9-11.9zm24.902 0c0-7.17-5.833-13.003-13.003-13.003C24.833 8.79 19 14.623 19 21.793s5.833 13.002 13.002 13.002c7.17 0 13.003-5.833 13.003-13.002z"/></g><g><path fill="#5f5e6b" d="M31.557 62.642a.551.551 0 0 0 .88 0c.44-.582 5.91-7.866 11.176-16.473h7.29L62.345 70.62H1.65l11.443-24.452h7.29c5.265 8.607 10.736 15.89 11.175 16.473zM11.524 22.395c0-11.74 9.184-21.292 20.473-21.292 11.29 0 20.473 9.552 20.473 21.292 0 10.78-17.455 34.902-20.473 38.99-3.017-4.088-20.473-28.208-20.473-38.99zm.717 22.988L.282 70.94a.551.551 0 0 0 .5.785h62.431a.552.552 0 0 0 .5-.785l-11.96-25.556a.552.552 0 0 0-.5-.318h-6.97c4.828-8.028 9.293-16.988 9.293-22.67C53.576 10.046 43.896 0 31.997 0 20.1 0 10.42 10.046 10.42 22.395c0 5.682 4.465 14.642 9.293 22.67h-6.97a.552.552 0 0 0-.5.318z"/></g></g></g></symbol><symbol id="pin" viewBox="0 0 15 18"><g><g transform="translate(-333 -390)"><use fill="#768b9c" xlink:href="#q22va"/></g></g></symbol><symbol id="print" viewBox="0 0 20 20"><g><g transform="translate(-506 -346)"><use fill="#768b9c" xlink:href="#1x1xa"/></g></g></symbol><symbol id="right-arrow" viewBox="0 0 490 490">
<g>
	<g>
		<path fill="#768b9c" d="M190.5,490V0l116,245L190.5,490z"/>
	</g>
</g>
</symbol><symbol id="search" viewBox="0 0 18 18"><g><g transform="translate(-1342 -115)"><use fill="#768b9c" xlink:href="#r5k2a"/></g></g></symbol><symbol id="small-arrow-down" viewBox="0 0 14 8"><g><g transform="translate(-346 -964)"><use fill="#5f5e6b" xlink:href="#pr70a"/></g></g></symbol><symbol id="small-arrow-up" viewBox="0 0 14 8"><g><g transform="translate(-346 -787)"><use fill="#5f5e6b" xlink:href="#60wna"/></g></g></symbol><symbol id="truck-backwards" viewBox="0 0 470 470">
  <g>
    <path fill="#dd353d" d="m78.628,91.881c4.142,0 7.5-3.358 7.5-7.5v-69.381h297.743v69.381c0,4.142 3.358,7.5 7.5,7.5s7.5-3.358 7.5-7.5v-76.881c0-4.142-3.358-7.5-7.5-7.5h-312.743c-4.142,0-7.5,3.358-7.5,7.5v76.881c0,4.142 3.358,7.5 7.5,7.5z"/>
    <path fill="#dd353d" d="m398.872,290.218v-95.837c0-4.142-3.358-7.5-7.5-7.5s-7.5,3.358-7.5,7.5v95.161h-24.186v-117.661h61.686c4.142,0 7.5-3.358 7.5-7.5v-50c0-4.142-3.358-7.5-7.5-7.5h-61.686v-22.5c0-4.142-3.358-7.5-7.5-7.5h-234.372c-4.142,0-7.5,3.358-7.5,7.5v22.5h-61.686c-4.142,0-7.5,3.358-7.5,7.5v50c0,4.142 3.358,7.5 7.5,7.5h61.686v117.661h-24.186v-95.161c0-4.142-3.358-7.5-7.5-7.5s-7.5,3.358-7.5,7.5v95.837c-19.868,3.554-35,20.949-35,41.824v79.491c0,4.142 3.358,7.5 7.5,7.5h2.5v43.467c0,4.142 3.358,7.5 7.5,7.5h64.186c4.142,0 7.5-3.358 7.5-7.5v-20.967c0-4.142-3.358-7.5-7.5-7.5s-7.5,3.358-7.5,7.5v13.467h-49.186v-35.967h347.743v35.967h-49.186v-13.467c0-4.142-3.358-7.5-7.5-7.5s-7.5,3.358-7.5,7.5v20.967c0,4.142 3.358,7.5 7.5,7.5h64.186c4.142,0 7.5-3.358 7.5-7.5v-43.467h2.5c4.142,0 7.5-3.358 7.5-7.5v-79.491c0.001-20.875-15.131-38.27-34.999-41.824zm-7.5,14.324c15.164,0 27.5,12.336 27.5,27.5v31.991h-59.186v-59.491h31.686zm27.5,99.491h-367.744v-25h367.743v25zm-293.557-232.152h219.371v192.151h-219.371v-192.151zm288.558-15h-15v-35h15v35zm-30-35v35h-24.186v-35h24.186zm-39.186,35h-102.186v-65h102.186v65zm-219.372-65h102.186v65h-102.186v-65zm-15,65h-24.186v-35h24.186v35zm-54.186-35h15v35h-15v-35zm22.5,182.661h31.686v59.491h-59.186v-31.991c0-15.164 12.337-27.5 27.5-27.5z"/>
    <path fill="#dd353d" d="m147.814,259.033h174.371c4.142,0 7.5-3.358 7.5-7.5 0-23.435-19.065-42.5-42.5-42.5h-104.371c-23.435,0-42.5,19.065-42.5,42.5 0,4.142 3.358,7.5 7.5,7.5zm35-35h104.371c12.565,0 23.188,8.47 26.46,20h-157.291c3.272-11.531 13.896-20 26.46-20z"/>
    <path fill="#dd353d" d="m322.186,274.033h-174.372c-4.142,0-7.5,3.358-7.5,7.5s3.358,7.5 7.5,7.5h174.371c4.142,0 7.5-3.358 7.5-7.5s-3.357-7.5-7.499-7.5z"/>
    <path fill="#dd353d" d="m322.186,304.033h-174.372c-4.142,0-7.5,3.358-7.5,7.5s3.358,7.5 7.5,7.5h174.371c4.142,0 7.5-3.358 7.5-7.5s-3.357-7.5-7.499-7.5z"/>
    <path fill="#dd353d" d="m322.186,334.033h-174.372c-4.142,0-7.5,3.358-7.5,7.5s3.358,7.5 7.5,7.5h174.371c4.142,0 7.5-3.358 7.5-7.5s-3.357-7.5-7.499-7.5z"/>
  </g>
</symbol><symbol id="truck" viewBox="0 0 15 19"><g><g transform="translate(-1292 -41)"><g><use fill="#dd353d" xlink:href="#jejpa"/></g><g><use fill="#dd353d" xlink:href="#jejpb"/></g><g><use fill="#dd353d" xlink:href="#jejpc"/></g></g></g></symbol><symbol id="warehouse-closed" viewBox="0 0 490 490">
<g>
	<path d="M484.093,157.57L250.691,26.172c-3.47-1.953-7.913-1.953-11.383,0L5.909,157.57C2.265,159.622,0,163.496,0,167.679v297.614
		h57.535V215.971h374.93v249.322H490V167.679C490,163.496,487.735,159.623,484.093,157.57z M162.495,175.52
		c0,2.777-2.251,5.029-5.031,5.029h-46.283c-2.779,0-5.031-2.252-5.031-5.029v-14.087c0-2.779,2.251-5.03,5.031-5.03h46.283
		c2.779,0,5.031,2.251,5.031,5.03V175.52z M273.173,175.52c0,2.777-2.253,5.029-5.032,5.029h-46.281
		c-2.779,0-5.032-2.252-5.032-5.029v-14.087c0-2.779,2.253-5.03,5.032-5.03h46.281c2.779,0,5.032,2.251,5.032,5.03V175.52z
		 M383.85,175.52c0,2.777-2.25,5.029-5.029,5.029h-46.284c-2.779,0-5.032-2.252-5.032-5.029v-14.087c0-2.779,2.253-5.03,5.032-5.03
		h46.284c2.779,0,5.029,2.251,5.029,5.03V175.52z"/>
	<path id="line" d="M400.744,251.986H89.257c-1.944,0-3.522,1.577-3.522,3.521v26.894c0,1.945,1.578,3.523,3.522,3.523h311.487
		c1.943,0,3.521-1.577,3.521-3.523v-26.894C404.265,253.563,402.688,251.986,400.744,251.986z"/>
	<path id="line" d="M400.744,312.203H89.257c-1.944,0-3.522,1.576-3.522,3.521v26.895c0,1.945,1.578,3.522,3.522,3.522h311.487
		c1.943,0,3.521-1.576,3.521-3.522v-26.895C404.265,313.779,402.688,312.203,400.744,312.203z"/>
	<path id="line" d="M400.744,372.418H89.257c-1.944,0-3.522,1.576-3.522,3.521v26.897c0,1.944,1.578,3.52,3.522,3.52h311.487
		c1.943,0,3.521-1.575,3.521-3.52v-26.897C404.265,373.994,402.688,372.418,400.744,372.418z"/>
</g>
<g>
</g>
<g>
</g>
<g>
</g>
<g>
</g>
<g>
</g>
<g>
</g>
<g>
</g>
<g>
</g>
<g>
</g>
<g>
</g>
<g>
</g>
<g>
</g>
<g>
</g>
<g>
</g>
<g>
</g>
</symbol><symbol id="window" viewBox="0 0 12 12"><g><g transform="translate(-993 -41)"><use fill="#5f5e6b" xlink:href="#68fta"/></g></g></symbol><symbol id="youtube" viewBox="0 0 461.001 461.001">
<path style="fill:#F61C0D;" d="M365.257,67.393H95.744C42.866,67.393,0,110.259,0,163.137v134.728
	c0,52.878,42.866,95.744,95.744,95.744h269.513c52.878,0,95.744-42.866,95.744-95.744V163.137
	C461.001,110.259,418.135,67.393,365.257,67.393z M300.506,237.056l-126.06,60.123c-3.359,1.602-7.239-0.847-7.239-4.568V168.607
	c0-3.774,3.982-6.22,7.348-4.514l126.06,63.881C304.363,229.873,304.298,235.248,300.506,237.056z"/>
<g>
</g>
<g>
</g>
<g>
</g>
<g>
</g>
<g>
</g>
<g>
</g>
<g>
</g>
<g>
</g>
<g>
</g>
<g>
</g>
<g>
</g>
<g>
</g>
<g>
</g>
<g>
</g>
<g>
</g>
</symbol></svg>